<svg xmlns="http://www.w3.org/2000/svg" xml:space="preserve" style="enable-background:new 0 0 36 36" viewBox="0 0 36 36" fill="currentColor">
	<path d="M29.6 4.3zm6.2 17.3c0-.1 0-.1 0 0zM31 30.3c.1 0 .1-.1.1-.1l-.1.1zm-2 1.8zm0 0zm.1-1.3-.2.2h.1s.1-.1.1-.2zm5.9-15s0-.1 0 0c0-.1 0 0 0 0zM9.6 32.7h-.2c0-.1.1-.1.2 0zM36 18.9c-.1-.1-.1.4-.2.6-.1.1-.1 0-.1-.1v-.1c0-.2-.2-.2-.3.2 0 .4.2.4.2.3-.1.5.1.5 0 1.1 0 .1-.3.5-.3.9.1.2.2-.5.2-.2-.4.6-.1 1.3-.5 2.1l-.1-.1c-.1.2-.1.4-.2.6l.2-.2c0 .2-.2.6-.3.4 0 .5-.1.5-.3.9.2-.4 0 0 .1-.3-.2.4-.2.4-.3.7 0-.1-.2 0-.2.2 0 .3-.3.8-.4 1.1-.3.6-.8 1.2-1.2 1.8.2-.1-.2.5-.3.7 0 0-.1 0-.2.1.1.1-.1.3-.1.4-.2.1-.1-.1-.4.2-.1.1-.1.2 0 .2-.1 0-.3.2-.5.3 0-.1.1-.1.2-.2 0-.1-.1.1-.2 0-.1.1 0 .1-.2.3l.1-.2c-.1 0-.1.2-.2.2.1-.1 0-.2-.1-.2-.3.5.1.3.2.4-.4.3-.6.7-.9 1v-.1c-.1.1-.2.2-.2.3l-.1.1s0 .1-.1.1l-.1.1s0-.1.1-.1v-.1h.1v-.1c-.2.2-.6.5-.6.6-.4.2-1.1.7-1.1.7-.4.3-.9.5-.8.6-.2.2-.7.2-.8.4-.3 0 0 0 0-.2-.3 0-.5.4-.7.3-.3.2.1 0 0 .1-.2-.1-.7.3-1 .3-.1.1.2 0-.1.2 0-.1-.1 0-.2 0v.1l-.4-.2c-.5.3.2.2-.5.5-.2-.1-.5.2-1 .3.2 0 0-.1.1-.1l-.3-.5c-.3 0-.2.1-.5.1.2-.1.1-.1 0-.2l-.4.2.1-.2c-.4 0-1 .4-1.2.2l.2-.1s-.2-.1-.4 0c-.1 0-.1.1 0 .1h-.2c.1-.1.6-.2.9-.3-.1.1-.3.1-.2.2.3-.1.5-.2.8-.3-.1.1-.2.1-.2.2.3 0 .2-.1.4-.2.1 0 .2 0 .1.1.3-.1.5-.2.8-.2 0 0-.3.2-.1.2.5-.2.6-.4 1.2-.6.6-.4 1.3-.3 1.7-.7 0-.1-.4.1-.1-.1 0 .1.2 0 .2 0 .2-.3.5-.2.6-.4h.3c0 .1.4-.1 0 .3.4-.4.8-.4 1-.9h-.1l.5-.2c.2-.1.2-.1.5-.2l-.3.3c.3 0 .4-.4.7-.6 0 .1-.2.2-.1.3.2-.1.3-.3.5-.4v.1c.5-.2 0-.3.4-.4v-.1c.1 0 .5-.2.2.1.1-.1.3-.3.3-.4-.2 0-.2.1-.3.1l.5-.5c.1-.1 0 .1-.1.1.4-.2.7-.5 1-.9.3-.4.6-.7 1-1-.1 0 0-.1 0-.2.2-.2.5-.6.7-.9v.1c.4-.7.5-1.2.8-1.6 0 0 .1 0 0 .1.1-.4.6-.6.4-.8l-.1.1c.2-.3.3-.7.4-1.1.1-.4.2-.8.3-1.1.2-.1-.1.4.1.3.2-.5.3-1 .5-1.6v.1c.2-.5-.1 0 0-.4.1 0 .1 0 .1-.1l-.1-.2s.1 0 .1.1c-.1-.2.1-.9 0-1.1 0 0 .1.1.2 0 .1-.2.1-.4 0-.6.1-.2.1-.6.1-.5.1-.5-.1-.1-.1-.4l-.1.4v-.7.3c.1-.3 0-.6 0-1l-.1.2V18c.1 0 0-.5.2-.3 0-.7-.1-1.2-.3-1.8h.1c0-.4-.1-.6-.3-.8l.1.1c-.1-.5-.1-.3-.3-.8.1.1.1.1.1-.1l-.2-.2c.4.3 0-.6.3-.4-.1 0-.4-.7-.5-.5l.1.1c-.1 0-.1-.2-.1-.3 0 .1.1.1.1.1-.1-.3-.3-.7-.4-1-.1-.4-.2-.7-.5-1.1.1 0 .2.3.2.1-.3-.7-.6-1.1-1.1-1.8.2-.1.5.7.6.7-.2-.4-.5-.7-.7-1.1-.1-.2-.3-.4-.4-.5.1-.1-.1-.2-.2-.4 0-.4-.6-.7-.9-1.2 0 .1-.3-.1-.5-.3.1 0-.1-.2 0-.2-.2-.2-.9-.7-.7-.8-.1 0-.4-.5-.7-.5-.2-.3-.6-.4-.9-.7.1.1-.4-.3-.5-.3 0 0 .1.1.1 0 0-.2-.5-.2-.7-.4-.1-.1.1-.1-.1-.2 0 .1-.7-.2-.8-.4h.2c-.6-.2-1.1-.5-1.6-.7-.6-.2-1.1-.4-1.7-.5l.2-.1c-.7-.4-.5.1-1.1-.1l-.6-.2-.6-.1c-.4-.1-.8-.2-1.2-.2-.8-.1-1.6-.2-2.4-.1-.1 0 .1 0 .1.1-.1 0-.2-.1-.4 0v.1h-.6c-.2 0-.5.1-.7.1-.5.1-1 .1-1.2.1l-.9.3c-.2 0-.3.1-.5.1-.2.1-.3.1-.5.3-.3 0 .2-.2-.1-.1l-.7.4c-.6.5-1.9.6-2.6 1.3 0-.1-.2 0-.3.1 0 .1.1 0 .2 0-.4 0-.6.1-.8.3-.2.2-.3.3-.6.5.2-.2-.3.1-.3 0-.1.2.1 0-.1.3-.5.4-.9.7-1.3 1 0 .2-.2.4-.1.4-.4.5-.7.8-1.1 1.4 0 .3-.5.5-.5.7v-.1l-.2.2c0-.1 0-.3-.2-.1-.1.3.1 0 .1.1h-.2c-.1.2 0 .3.2.1-.4.7-.8 1.3-1 1.9v-.1c-.1.4-.4.8-.5 1 0 0 0 .1.1.1 0 .5-.1 0-.2.5v-.3l-.2.9c-.1 0-.4.5-.4.9 0 0 .1-.1.1-.2v.2l-.2.1v.4h-.1c0 .3.1.4 0 .6-.3 1-.3.8-.5 1.4.2.1-.1.9.1 1.1-.3.7-.1 1.8-.1 2.8v-.1c0 .4.3.5.3.9v-.1c-.1.6.3 1.6.6 2.1-.1-.1-.1 0-.1.1.1.1.1-.2.2.1 0-.1-.1 0-.1.1l.1.4c.1.4.2.8.3 1.3l.6 1.2c.1.2 0 .1-.1.1.3.6.8 1.1 1.1 1.6l-.1.1c.2.2.3 0 .4.4 0 .1-.2-.2-.3-.2.3.5.3.2.7.7h-.2c.2.4.4.3.6.4.5.3 0 .5.7 1 .1 0 0-.1.2-.1.4.5.5.4.9.8.1.4-.2-.2-.1.2l-.3-.3c.2.4-.3-.2-.3-.1.2.3.6.5.9.7-.1.1-.3-.3-.3-.1l.2.1c-.1 0-.1 0-.2-.1 0 .1.2.2.3.3 0 0 .1-.1.1-.2v.1c.4.1.8.6 1.2.7-.1 0 0 0 0 .1.2.1.4.2.7.3.1.1-.2.1.2.4.1 0 .1-.1.1-.1v.1c.4.2.1.1.4.4.2 0 .3.2.5.1 0 .2 0 .1.2.3-.1-.1.5.1.5 0 0 .2-.5 0-.2.3.2 0 .7.2.7 0 .1.1.2.2.5.3h-.1c.5 0 1.1.4 1.4.3-.2.2 1 .3.6.4h.6c-.1.2.5.1.7.3.1-.1.5 0 .7 0-.1 0-.2 0-.1.1.2 0 .2 0 .4.1.3 0 0-.1.2-.2.3.1 0 .1.1.2l.4-.2c.1 0 .1.1.2.1.2 0 .3-.1.5 0h-.4l.1.1.4-.1c.6.2.4.4.4.5h-.3c0 .1.2.1.3.1.1 0-.4.2-.7.2-.8 0-.1-.2-.7-.3h-.7v-.1c-.1-.1-.2 0-.2 0 .1-.1-.6-.1-.8-.2l.1.1h-.6s0 .1-.2.1c.2 0 0-.1-.1-.2-.1 0-.1-.1-.2-.1-.3-.1-.5-.3-.8-.3h-.5V35c-.3 0-.3.1-.7-.1-1.3-.7-2.8-1.2-4-2.2 0 0 0 .1.1.1-.4-.5-.9-.8-1.3-1-.4-.3-.9-.5-1.2-1h.1c-.4-.4.1 0-.2-.3-.2 0-.6-.5-.9-.7.1 0 .1.1.2.2 0-.1 0-.2-.1-.3-.4-.1-.9-.8-1.3-1.3 0-.1-.2-.6-.2-.9-.1 0-.2-.1-.3-.1-.1-.2-.2-.3-.3-.4.1.2.2.3.3.4l.1.1c.1.1.1.2.1.1 0 .3-.1 0-.2.1-.1-.2-.4-.5-.3-.6-.1-.1-.1-.2-.1-.3 0-.1-.1-.1-.1-.2v-.1c-.1-.4-.5-.8-.7-1.1.3.2.1-.1.2-.2 0 0 .1.3.4.8v-.1c-.1-.4-.4-.6-.6-1.3l.1.1c0-.2-.2-.4-.3-.4.1-.1 0-.6-.1-.8-.3-.2-.3-.2-.4-.5l.1.1c-.1-.4-.2-.3-.2-.7 0 .1.1.1.1 0-.2-.4-.2-.4-.5-.7h.1c-.1-.4-.4-1.1-.2-1.1-.2.2-.3-.8-.3-1.2 0 .1.1.1.1.1-.2-.7-.1-1.5 0-2.2l.2-.1c0-.4-.3-.5-.3-.9l.1.2c0-.8.1-1.1.2-1.6h.1v-.7c.2-.2.3-.7.4-1.2.1-.5.3-1.1.6-1.5l-.2-.1c.1-.3.3-.7.5-.8v.1c.1.1.2-.3.3-.5.1-.2 0-.4-.1-.2.2-.4.5-.9.8-1.3.3-.5.6-.8.8-1 .4-.6.5-1 .8-1.3.2-.3.5-.7.9-1 .2-.2.8-.6.9-.5.2-.3.4-.5.6-.8.2-.2.5-.5.8-.7l-.1.2c.2-.1.4-.4.5-.4.1 0 0 0 0 0 .2-.1.2-.2.4-.3V3c.3-.1.7-.4 1.1-.7.4-.3.8-.5 1.2-.7-.1.1 0 .1 0 .1.2-.4 1.2-.7 1.5-.8l-.2.1c.6-.4.6 0 1.3-.3h-.4c.3 0 .5-.1.4-.2.3 0 .1.1.6 0 0 0-.3.1-.2.2h.7s.1 0 .3-.1c-.1-.2.6-.1.2-.3.5-.1.9-.1 1.4-.2.4 0 .9 0 1.3-.1.4.2 1.7 0 1.6.3.5 0 .9 0 1.2-.1H20c.1-.1.7 0 .9 0-.3 0-.8 0-1.1.1h1.3l.1.2c.4-.1.3.2.7.1l-.1-.1c.6.2.7 0 1.3.2v.1c.2.1.6 0 .7.2-.1 0-.3-.1-.4-.1 0 .1.3.3.4.4.4.1.2-.1.4-.1 0 .1 0 .1-.2.1.5.1 1.1.3 1.4.3.4.2.8.3 1.1.4h.1c.1.1.2.1 0 .1.1.1.3.2.4.2v.1c.2.1.4.2.3.3.1.1-.4-.2-.2 0 .5.4.5 0 .9.3h-.1c.3.4.8.7 1.1 1 .3.4 1.2 1 1.5 1.6-.1-.2.2 0 .2 0 .1.2.2.1.3.2.1.2.5.4.5.5 0 0 .1.1.3.2-.3-.2-.2 0-.4-.1.4.4.6.3.9.9l.1.3c.2 0 .5.4.5.4 0 .1.1.3 0 .3.2.2.3.5.4.6l-.1-.2c.3.7.8.9.9 1.5l-.2.1c.1.4.4.6.4.9 0-.1 0-.2.2 0 0-.1-.2-.4-.3-.6l.1.1h.1l-.2-.3c.2.3.2.3.2.1.3.4.1.5.4.9 0 .2-.1 0-.1.2.2.4.1.8.3 1 0 .1-.1-.2-.1-.1.1.2.2.4.2.5v-.2c0 .2.1.2.2.6.1.2.3.3.2.1 0 .1 0 .3-.1.3.1.2.1.3.2.4v-.1.1c.1.1.2.1.2.5 0 0 0-.1 0 0s0 .3.1.4c-.1-.5-.2.2-.2-.4-.1.1 0 .5 0 .7.1.3.2 0 .3.1v.3l.1-.2c0 .1 0 .2.1.4l-.1-.2c0 .3 0 .7.1 1.1 0-.1-.1-.4-.2 0 .1.5 0 .1-.1.4 0 .5.2.1.2.8 0 .1.1 0 .1-.1 0 .5 0 .8-.1 1.3-.2-.5-.1-.7-.1-.4zM2.8 26c0 .1.1.1.1.2 0-.1-.1-.1-.1-.2zm-.3 1s0 .1.1.2h.1c-.2-.1-.2-.1-.2-.2zm-.1-1.7c0 .1.1.3 0 .3 0 .1.1.1.1 0s0-.3-.1-.3zM34.6 11l-.2-.3h-.1l.3.3zM9.4 32.6zm0 0zM1.5 21.8zM34.4 23c-.1.1-.1.2 0 0zM24.9 1.6c-.5-.2.2-.1-.4-.2.2.1.1.1 0 .1.1 0 .3 0 .4.1zm.1 0zm-3.2 33.9c-.1 0-.3.1-.5.1.2.1.4 0 .5-.1zM1.1 24.1l.1.3v-.2l-.1-.1zm12.7-6.6.4-.3.3-.4.2-.4v-.5l.3-.4.2-.5h-.5l-.4.1-.2.4-.3.4-.4.3-.4.1-.3.4-.4.3-.3.4-.5.1-.5.2v.5l.5.1.4.3.4.2.3.3.3.4.5.2.2.5.4.3.3.4.5.1.4-.2-.1-.4-.3-.4-.3-.4-.2-.5-.3-.4-.3-.4.5-.1.5.3.5-.2.5.1h.5l.5.2.5-.1.5-.2.5.1.5-.1.5.2.5-.1h.5l.5.2.5-.1.5-.1.5.2.5-.2h.5l.5.2.5-.1.5-.1h.5l.5.1.2-.5.1-.5h-.5l-.5-.2-.5.1-.5.2-.5-.1-.5.1-.5-.3-.5.2-.5-.2h-1l-.5.2-.5-.1-.5.2h-.5l-.5-.1-.5.1-.5-.1h-.5l-.5-.1-.5.2-.5-.2-.5.2-.7-.1z"></path>
</svg>