<svg class="svg--arrow" xmlns="http://www.w3.org/2000/svg" viewBox="0 0 6 12">
  <path opacity="0.75" d="M.703448 10.3071s.110345.0769.165517.1231C.937931 10.3994.827586 10.3379.8 10.2609c.055172 0 .165517.0616.17931.0308 0-.0154-.013793-.0308-.041379-.0462.110349.0462.096549-.1077.234479-.0462v-.0307s.06897.1077.09656.1385c.01379-.0154.09655.0308.04137-.0462 0 0-.02758 0-.05517-.0308h.04138c-.06896-.1077-.05517 0-.12414-.0615.06897 0 .17931.0154.17931-.0462-.08275-.0923-.09655.0462-.12413-.077v.0924c-.11035-.1847-.02759.0462-.13794-.15392.04138-.09234.11035-.03078.13794-.12312.05517.03078.06896.07695.12413.12312.16552 0-.13793-.3078.02759-.24624.06897.04617.17931.1539.16552.04617l-.11035-.09234S1.6 9.7992 1.6 9.66069c-.04138-.03078-.08276.01539-.08276 0-.04138-.12313.08276.03078.11035 0l-.08276-.09235c.06896-.06156.20689-.06156.28965-.12312-.02758-.03078-.06896-.04617-.06896-.09234.12413-.04617.17931-.21546.20689-.36936l.09656.04617s-.0138-.04617-.04138-.06156c0-.06157.04138.04617.09655.06156.02758 0-.0138-.07695-.05517-.07695.12413 0 .28965-.03078.27586-.18469h-.02759c.01379-.09234.1931.09234.17931-.03078h-.02758c.06896-.1539.24827-.20007.22068-.41553.12414.09234.05518-.1693.2069 0 0-.13852-.05517-.15391-.02758-.29242.01379-.03078.12413.06156.16551.04617l-.06896-.07695.11034.04617-.06896-.12312h.04138s0 .06156.04137.07695c.06897 0 .04138-.16929 0-.21546l.15173-.03078s-.05517-.03078-.09655-.03078c.12414.03078-.06897-.09234.04138-.07695 0 .03078.04138.04617.06896.06156-.02758-.07695.02759-.13851.08276-.1539l-.05517-.04618c.05517-.09234.16552-.13851.24827-.21546 0 .06156.09656.1539.12414.13851l-.06896-.09234s0 .06156.09655.09234c.01379-.04617-.06897-.12312-.11035-.13851h.06897S3.6 7.24442 3.57241 7.21364c.06897.04617-.01379-.1539.08276-.07695l-.02758-.03078c.08275-.09234.13793-.09234.20689-.16929.06897.07695.08276.03078.15173.07695.02758-.07695.02758-.20008.08275-.24625.06897 0 .06897.04617.12414.07695-.05517-.07695 0-.12312-.06896-.1539.08276-.06156.09655-.07695.23448-.12312.01379.04617.01379.06156.04138.07695.02759 0 0-.06156-.02759-.09234.19311 0 .04138-.44632.24828-.38475h.15172c.02759-.04618-.06896-.03079-.08276-.10774.22069 0 .05518-.09234.16552-.06156-.24827-.12312.05517-.06156-.09655-.09234h-.02759.08276-.06896.12414c.02758-.03078-.02759-.06156-.08276-.06156-.02759 0-.04138.01539-.08276 0-.05517-.03078-.11035-.06156-.16552-.09234-.06897-.06156.1931-.29242 0-.26163l-.05517.10773c-.02759-.24625-.24828-.27703-.28966-.49249 0 .03078-.04138.06156-.02758.06156-.08276.03078-.09656-.10773-.04138-.1539-.02759 0-.04138.04617-.08276.06156-.05517 0 0-.1539-.05517-.10773v.04617c0-.04617-.08276-.07695 0-.13851-.08276 0-.05518-.12313-.12414-.12313.05517-.10773-.11035-.04617 0-.16929-.11035.12312-.16552 0-.13793-.07695-.02759.04617-.05518 0-.09655.07695-.02759-.03078-.04138-.09234.02758-.1539-.1931.07695 0-.24624-.22069-.09234-.04138-.16929-.08276-.3232-.13793-.44632-.11034.12312.08276.12312-.04138.24625-.04138-.13852 0-.29242-.09655-.35398-.04138 0-.04138.06156-.04138.09234-.04138-.13851-.16552-.16929-.17931-.3078 0 0 0 .03078-.01379.04617 0-.01539-.05518-.01539 0-.07695v.03078c.09655-.06156.09655-.23086.13793-.27703-.12414.18469-.11035-.04617-.24828.20008 0-.01539 0-.06156.04138-.09235-.02758 0-.04138 0-.06896.07696-.02759-.09235.04138-.12313 0-.1693-.02759.03078-.02759.04617-.04138.09234.02758-.07695.04138-.1539 0-.18468 0 .01539-.04138.03078-.02759.04617-.05517-.07695 0-.26163-.11034-.29241-.08276.13851-.05518 0-.15173.10773v-.07695l.04138-.03078c-.04138-.03078 0-.13851-.05517-.13851v.07695l-.05517-.09234h.06896c0-.09235.12414-.12313.04138-.13852 0 .01539-.04138-.03078-.11034 0 0 0 .02758-.10773-.02759-.10773-.04138.03078-.09655.12312-.12414.13851.05517-.10773-.05517-.10773 0-.23085 0 .03078-.05517.07695-.06896.09234l.04138-.09234s-.04138 0-.08276.06156c-.05518-.04617.12414-.10773.02758-.12312v.04617C2.06896 2.42728 2.08276 2.28877 2 2.25799c-.11035.09234.02759.07695-.06897.13851-.05517-.10773-.04138-.29241-.13793-.35398h.02759c.12414-.1539-.12414.00001-.09655-.09234 0 .01539-.05518.09235-.04138.07696-.06897-.03079-.06897-.15391-.11035-.27703l-.02758.04617s-.09656-.06156-.13793-.09234c.02758-.04617 0-.06156.05517-.10773-.28966.10773-.08276-.3232-.33104-.24624v.04617l-.04138-.12313s.04138-.03078.11035-.06156c.02759-.04617.02759-.10773 0-.12312 0 .07695-.09655.10773-.13793.12312l.05517-.06156c-.137931.06156.11035-.13851-.01379-.12312l-.02759.03078s.01379-.10773-.01379-.123121c-.068968.061561 0 .061561-.05517.123121-.027591-.03078.06896-.200072-.027591-.169292V.9806c-.110344.04617-.096551.03078-.124138 0L.772413.96521h.027586C.93793.718966.75862.842088.813792.657405.75862.826697.75862.734356.689654.826697c-.027586 0-.082758.000001-.096552.046171.04138-.092341-.082758 0-.027586-.123122C.53793.780527.53793.718966.482758.795917c0-.061561.055172-.030781.082758-.076951C.593102.580454.35862.703576.399999.503503.386206.380381.455171.28804.441378.180308.386206.195698.372413.28804.372413.28804.303447.28804.289654.25726.289654.195699c-.013793.03078-.041379.04617-.068965.06156-.013793-.03078.068965-.107731 0-.107731C.193102.180308.165516.241869.151723.28804V.103357C.0965507.134138.110344.195699.0827576.226479c0-.061561-.0413793-.1385125 0-.2154636H.124137S.0551714.0571864.0551714.0879668c-.0275862.0923412.0551726.0153902.0827586 0V.0417965C.289654-.0967155.193102.149528.234482.195699L.31724.0571864.275861.195699S.372413.118747.372413.0879668c.082758-.0307805 0 .0615612.068965.0307802l.013793-.01539v.061561S.524137.0879668.496551.0879668c.110344 0 0 .1692922.096551.1077322C.634482.30343.524137.27265.496551.426552L.71724.257259.648275.349601S.675861.3496.703447.33421C.675861.426551.662068.364991.634482.441942c.096551-.030781.068965.138512.193103.01539-.041379.076952-.082758 0-.082758.092342.137931-.123122.027586.07695.110344.04617.055173-.076951 0-.076951.082759-.107731-.096552.138512.08276.04617.09655.092341-.082757.107732.02759.107732.04138.184683.02759-.030781.13793.046171.2069.046171-.08276.092341-.02759.123121 0 .169292.05517-.061561.06896-.092341.06896-.138512l.02759.03078s-.02759.061561-.01379.092342l.05517-.076952s0 .169292.09655.184682c-.05517.07695-.22069.1539-.2069.26163.04138-.03078.09656-.09234.09656-.12312v.04617l.04138-.09234s-.04138.06156 0 .07695c.04137-.06156.04137-.03078.08275-.06156 0 0-.04138 0-.02758-.03078.02758 0 .08276 0 .12414-.01539-.02759.03078-.06897.07695-.05518.09234.04138.04617.06897-.04617.12414-.04617-.02759.04617.04138.03078-.04138.12312 0 0 .04138-.01539.06897-.04617 0 .06156.08276.12313 0 .1693 0 .1539.17931.10773.22069.21546l.02758-.03078s.06897.12312.04138.20007c0 0 .06897-.01539.09655-.06156 0 .06156 0 .09234.06897.09234 0-.07695.04138-.03078 0-.06156.05517.01539.11034 0 .08276.10773.04138-.09234.11034-.04617.11034 0h-.06896s.04138.06156.05517.07695l.06897-.10773c.17931-.01539-.02759.35398.20689.23086-.04138.09234-.08276 0-.12414.09234.04138.03078.2069-.06156.22069-.04617.09656 0-.06896.18468 0 .21546-.04138.03078-.12413.10773-.11034.18468.04138.03078.16552-.09234.16552-.13851h-.02759c0-.03078 0-.06156.04138-.07695l-.02759.03078s.09655.04617.13793-.01539c0 .06156-.04138.06156-.06896.06156.08276 0 .06896.07695.15172.10773-.02758 0-.06896.04617-.05517.04617.11034.04617-.02759.09234 0 .16929.06897-.01539.09655-.12312.11034-.03078.05518 0 .08276-.07695.09656-.12312 0 .10773.12413.04617.15172.06156v-.04617s0 .04617.02759.06156l-.06897.04617s.04138.01539.05517 0c-.02758.06157-.11034.09235-.12413.18469.04138 0 .02758.09234.11034.01539-.08276-.03078.08276-.07695.04138-.1539 0 .01539 0 .03078.04138.03078 0 0 .01379-.01539.01379-.03078.12414 0-.05517.12312 0 .18468.04138-.06156.09655-.07695.09655-.06156-.02758-.03078-.08275.06156-.09655.12312.06897 0 .0138.07695.04138.09234H3.3931v.10773c.04138-.03078 0-.04617.02759-.06156-.04138.12312.13793-.01539.13793.09234.04138 0 .08276-.09234.12414-.09234 0 .10773.11034 0 .11034.09234-.06896.04617-.05517.03078-.08276.13851l-.04138-.13851-.04137.1539s0-.09234-.04138-.09234c-.02759.07695 0 .06156-.06897.10773.12414-.06156 0 .12313.11035.10774l.13793-.1693c.12413 0 .02758.18469.13793.23086h-.04138s.04138.06156.04138.10773c.04138-.06156.08276-.06156.12414-.07695-.04138.04617.05517.06156-.02759.16929l.09655-.03078c.08276.03078-.06896.23085 0 .27702.04138-.07695.09655-.09234.09655-.16929.0138.01539.04138.03078 0 .06156.04138-.01539 0 .12312.05518.09234 0 .03078-.05518.09234-.04138.10773l.02758-.03078c-.02758.03078 0 .07696-.06896.10774.20689-.10774.15172.18468.33103.10773.02759.06156.05517.13851.09655.18468 0-.01539.02759-.03078 0-.03078.09655 0-.11034.18468 0 .20007.11035-.06156 0-.07695.05518-.09234.16551-.16929.04137.10773.17931.04617.08275-.04617 0 .12312.06896.16929 0 0 0-.01539.02759-.03078-.04138.12313 0 .23086 0 .30781.04138-.09234 0-.06156.08276-.12312 0 .03078-.11035.10773-.08276.16929.04138-.01539.11034-.01539.17931-.09234l-.04138-.04617c.11034-.07695.04138.06156.08276.06156l.04138-.04617c.04138.07695-.04138.18468.02758.24624l-.04138.03078c-.05517.13851.08276-.03078.04138.09234l.11035-.09234s0 .21546.02758.29242c.06897-.09235.04138-.20008.02759-.29242.04138.04617.11034.1539.06897.20007 0-.01539 0-.06156-.02759-.06156-.04138.12312-.05517.18469 0 .24625.26207-.12313.22069.1539.53793.16929 0 .03078.01379.07695.04138.10773-.11035.10773-.11035.24624-.26207.38476-.16552-.13852-.05517.04617-.26207-.04617-.04138.03078-.05517.04617-.04138.04617 0 .06156.0138.10773.0138.18468.02758.06156.06896 0 .11034.03078-.06897.10773.04138.09234.02759.20007-.04138-.06156-.12414-.04617-.13793.03078v-.1539c-.2069.04617.04137.21546-.11035.21546l.06897.03078s-.12414.13852-.27587.04618c0 .03078.04138.07695.06897.07695-.06897.10773-.31724.06156-.30345.21546l.04138.03078s-.09655-.04617-.08276.01539c.0138.01539.04138.03078.04138.04617-.02758 0-.11034-.03078-.11034.01539l.05517.03078c-.02759.13851-.22069.03078-.31724.07695.11034.12312.08276.23086.06896.29242h.0138c-.08276.13851-.24828.09234-.38621.1539.05517.18468-.13793.26163-.15173.43093 0-.03079-.08275-.09235-.11034-.09235 0 .04617-.13793-.01539-.02759.09235.08276.10773 0 .13851-.01379.16929l-.13793-.13851c.09655.3078-.28966.16929-.17931.41553-.05517 0-.08276.01539-.13793 0l.06896.07695c-.04138.07695-.05517.12312-.15172.18469l.06897.04617s-.24828-.1693-.28966-.12313l.09655.12313c-.06896.07695-.05517.26163-.22069.23085.0138.01539.04138.04617.06897.03078-.02759.04617-.05517.21546-.19311.04617.09656.10773-.06896.09234-.13793.09234l.06897.06156c-.12414-.06156-.13793-.09234-.2069-.06156 0 .01539.04138.07695.04138.03078 0 .07695-.09655-.04617-.09655.04617l.05517.03078s-.05517.01539-.12414-.01539c-.05517 0-.05517.09234 0 .1693C2.46897 9.62991 2.4 9.58373 2.4 9.62991c.01379.03078.04138.03078.05517.04617-.01379.12312-.16551 0-.13793.13851.02759.03078.02759.04617.02759.04617.04138-.06156.08276-.10773.06896-.10773.06897.07695.04138.12312.15173.18468-.08276-.01539-.23449-.07695-.24828 0 0 0 0 .01539.01379.03078 0 0-.01379.01539-.02758.01539v.06152c.04138.0616-.01379.077-.02759.1078-.06896-.077-.08276-.0308-.11034-.1231h.04138l.05517-.04622s-.09655-.03078-.08276.03082c-.05517-.03082-.11034-.07699-.13793-.09238.06896.13848.06896.24628.12414.32318-.09655.0308-.16552.1231-.33104.0308-.02758 0 .0138.0616.02759.0923h.05517c-.06896 0-.11034.0924-.2069 0 0 .0924.11035.0616.02759.1078h.04138c.02759.3078-.41379-.0308-.35862.3232 0-.0154 0-.0308-.01379-.0462-.06897.2462-.37242.2462-.38621.554-.01379.077-.082759 0-.151725 0l.068966.0924-.124138-.0462c-.124138 0 .082759.3232-.124138.277l-.041379-.0615s-.110345.0615-.055173.1231c0 0-.055172-.0462-.041379 0l.041379.0462H.455172c-.027586.0923.165518.1693.096552.2616-.041379 0-.193103-.0308-.206896-.077 0 0 0-.0615-.027587-.1077H.275862C.151724 11.7076.0275862 11.5999-5e-8 11.4306l.11034505.0307-.0413795-.0769-.0413793.0308c-.02758626-.077.0275862-.0462.0689655-.0308-.0275862-.0308-.0413794-.0616-.0413794-.0924l.1517247.077s-.1103453-.077-.096552-.1385c.068965.0308.082758.1385.151724.1385-.027586-.077-.082759-.1231 0-.0923-.027586-.0308-.055173-.0462-.068966-.0616.055173 0 .068966-.0462.151725 0-.04138-.0923.096551-.0616-.013794-.1847.027587.0154.124138.0462.151725.0308-.165518-.1077.068965-.0923-.082759-.2309.137931.0924.151724-.0461.262069-.0307 0 0-.041379-.0154-.027586 0 .013793-.0462 0-.0924 0-.1385.096551.1077.165517.0769.248276.1231-.055173-.1385-.137932-.1078-.206897-.2155.068965.0924.137931.0154.193103.1077-.027586-.0923 0-.0615-.068965-.1539.124138.1232.041379 0 .137931.0616-.027586-.1077-.096552-.1385-.027586-.1385-.013793-.0616-.096552-.0616-.096552-.0616l-.110345-.0769Zm1.172412-.86188-.02758.01539.02758-.01539Zm.08276-.09234s-.01379.03078-.02759.04617c.02759.03078.05518.04617.05518.04617-.0138 0-.0138-.04617-.02759-.09234Zm.30345.72332v-.0461s-.01379 0-.02759.0153c0 0 .02759.0154.04138.0308h-.01379Z"></path>
</svg>