<svg class="svg--circle" xmlns="http://www.w3.org/2000/svg" viewBox="0 0 9 9">
  <path opacity="0.75" d="M7.26493 5.95516c-.04258.05657.14903.12342.23418.19542 0 .10799-.1437-.036-.24482-.06171.01596.07199.1437.21084.10644.23656-.02661-.01543-.04257-.01543-.06919-.04629.09048.13885-.10112.14914 0 .32399-.01596-.00514-.03193-.01543-.04257-.02057.08515.05142.16499.11314.21289.15942-.02129.03086.04258.13371-.06387.06171.02129-.01543-.01597-.05143-.04258-.08228l.01597.06685c-.16499-.09256-.01065-.08228-.11709-.16456 0 .09257.04258.25713-.03726.26742-.13838-.11314.0479-.13886-.12241-.19028l.11177-.02057c-.2608-.13371.0479-.02572-.21822-.17485-.11177.04114-.01064.15428-.13305.19028.05322.08742.11176.09771.15966.18513-.00532.2417-.39917-.2417-.32466.01029.05323.10799.18629.28798.03726.24684l-.10112-.17485c-.10113.04629.12241.26228-.05323.22628-.02661-.07714.03194-.10286 0-.11314-.15434-.08228.02662.12342-.02128.15942l-.11177-.13885c-.08516.07714-.12242.26227-.23418.34456-.01597-.05143-.02662-.108-.07452-.144-.10644.15428-.32998.12343-.50561.072v.16456s-.05323-.05657-.0479-.08742c-.07452-.04114.02661.09257.01596.15428-.03193.02057-.06919-.072-.06387-.12343-.06386.14914-.24482.3497-.38852.19542l.01596-.04628c-.0958-.04628-.05854.32399-.16499.19542l.01597-.03086c-.20225-.05142-.43111.09771-.57481-.14399-.0479.21599-.18096-.10285-.22886.19028-.0958-.16457-.05322-.21599-.18628-.33427-.03725-.01543-.0958.17485-.15967.19027l.03726-.15427-.10645.14399.01065-.19028-.05855.02572s.02129.07713 0 .12342c-.0958.05142-.14902-.15428-.12241-.23142l-.21289.06685c.02661-.05656.06387-.06685.10112-.09771-.14902.11828.0479-.15942-.09048-.05142 0 .036-.04258.08742-.05854.11314 0-.10286-.08516-.14914-.17032-.13886l.06387-.09256c-.10112-.072-.26079-.07714-.3832-.14914.01596.06686-.10113.22113-.14903.21599l.07984-.14913c-.08516.07199 0 .07714-.12242.14913-.03725-.05142.07984-.17999.13838-.2057l-.08515.01028c.02661-.04114.05322-.05657.0958-.10799-.08516.06685.01597-.20057-.12774-.07714l.02661-.04114c-.11709-.07714-.1916-.08743-.2874-.15428-.10644.10285-.11709.05142-.22886.10799-.02661-.09771-.00532-.24684-.09048-.3137-.10644-.01028-.11176.06171-.20224.08743.10112-.08743.02661-.16457.13838-.17999-.09048-.08743-.12774-.10286-.30338-.18514-.03725.04629-.0479.072-.09047.08743-.03726-.01543.01064-.08743.06919-.11828h.01596c-.2874-.06686.14903-.53484-.15967-.53998h.01597l-.1916-.08742c0-.072.11177 0 .17031-.06686-.27676-.07714-.03725-.2417-.22353-.32913.37788-.1697-.09581-.34455.15966-.50397l-.0958.01542c-.0958-.03085.05323-.04628.07451-.06685-.07451.00514-.08515.04114-.13305.02057-.13306-.29827.15434-.60683.30337-.84853.0479-.09257-.45772-.17999-.20225-.25713l.15967.08742c-.06919-.13371-.02129-.23656.02129-.33941.05322-.09771.11177-.19028.08516-.32913.02661.03086.07451.05657.06386.072.13306.02057.0958-.13885 0-.19028.02661-.02057.08516.04114.13838.05143.08516 0-.07983-.18514.04258-.13371.02129.01028.02661.03085.03194.04628-.03194-.05657.0958-.09771-.04258-.15942.10644-.02057.04258-.16456.15434-.16456-.0958-.13371.15435-.05143-.00532-.21085.17564.15942.23418.02057.20225-.08743.03725.06172.08516.02057.13838.108.04258-.04114.05322-.108-.03726-.19028.26079.13885.03726-.3137.30869-.07199.05855-.21085.17032-.35999.29273-.48855.10112.2057-.15435.10799-.02129.31884.07451-.16456.07451-.37027.24483-.39084.0479.01028.02129.10285.02661.14399.10644-.14913.28208-.08742.37788-.24684.00532.02057 0 .04628-.01064.06685.02661-.01543.06919.01543.03725-.08228l-.01596.036c-.09048-.13371.02129-.33427.01064-.416555.02661.303415.16499.035999.18096.426835.01064-.02571.02129-.07714 0-.14399.03193.01543.0479.05143.03726.13885.07983-.08228.02661-.17999.12241-.19028.01064.05143-.00532.072 0 .13371.02661-.10285.05854-.21085.1437-.17999 0 .03086.01597.072-.01064.072.12773-.04114.20757-.282848.36723-.20057-.03725.22628.05323.072.06387.26228.02661-.02057.05322-.04114.07984-.05657l-.03194-.09257c.06919.00514.13838-.128564.19693-.06171l-.05855.07714.13306-.03086-.06919-.07714c.07983-.097705.01064-.241699.10645-.18513-.02129.020571.07983 0 .10112.123423.04258-.056569.09048-.113138.13838-.056569 0 .061712-.04258.210846-.04258.251986.05855-.15428.17031-.02057.25015-.179989-.02129.035999-.0479.133709-.04258.154279l.05854-.11828c.02662.05143.02129.072 0 .14914.09048.04628.02662-.24685.1171-.11314-.01065.01028-.01065.02571-.03726.04114.10112.08228.25547-.02571.3353.07714-.03725.19542-.10644.01028-.12241.17999.14903.01543.38853-.108.51094 0l-.01597-.03086c.14371-.23656.04258.16971.17032.08743-.02661.00514-.0958.12342-.07451.09771.06386.09257.21289.04628.40449.06171l-.05854.04628c.01064.08743.10644.12343.1437.19028.05854-.04628.08515-.01028.13305-.10799-.04257.21599.05323.2417.17032.25713.11709.01542.23418.036.17031.21599-.01597-.01543-.07983 0-.06919.01542l.15435.06686c.08515-.08743.04258-.06171.09048-.14914.06919-.03085.1437-.03085.17031 0-.11177 0-.14902.12343-.18628.19028.02661-.02571.06387-.04628.09048-.072-.12241.19542.20225-.13885.15967.04114l-.05323.03086c.05323.01543.14371 0 .15967.04628-.10644.09257-.07983 0-.18095.06686.04257.04628.30337-.04629.21289.08228-.0479 0-.06919-.036-.11709-.036-.10113.13885-.06387.12342-.06387.17485l-.01065.11828.02662-.04628c.35659-.11828.14902.09771.40449.08228-.25015.00514-.12773.04628-.27144.10799-.02661.04629-.05322.10286-.10112.108.13838-.01029-.05854.11314.1437.09257-.0479.02571.01597.04628-.10644.08742.06386.036.07451-.04628.13838-.06685.20757.02571-.12242.28284.15966.32912.12774.08743.30338.06686.42047.16457-.06919.05657-.19161.01028-.19161.01028-.05854.07714-.02661.11828.03726.16457-.0479 0-.07984.01543-.13838.04628.02129.04114.1916 0 .12774.072-.05855 0-.15435 0-.2129-.01029.05323.04629.15967.08228.2129.13371-.08516.02571-.14371-.01543-.20225-.02571.0479.05657.10644.14913.25015.15942l.0479-.04628s-.12242.02571-.14903.01028c-.12241-.04114.03726-.08228.09048-.09257l.03726.036c.29272-.08228-.07452-.16456-.06919-.24684h.22353l-.19692-.05657c.05322-.03086.17031-.06686.21289-.03086.0958-.08742-.09048-.04114.01597-.11828.01596-.01028.02661-.01028.03725-.00514l-.07983-.04628c.0479 0 .14902-.04629.12773 0 .09581-.144-.20757-.13886-.05854-.22628h.01597c-.12242-.12342-.15967.036-.37789-.01543l.35127-.20056-.15966.04114s0-.05143.06386-.06685c-.12773-.02057-.06386.03599-.17563.03599.11177-.12856-.1437-.1697.07983-.28798-.12241.02571-.05322.10285-.17031.06685.2395-.13371-.08516-.06685 0-.18513.13838-.04114.10112.05142.18096-.06686-.23418.06686-.01597-.15428-.0958-.18513-.17032.09257-.14371-.07714-.25015-.13371.06386-.03085-.02661-.21599-.03726-.33941l.02661-.01543c-.17031.10285-.19692 0-.27676-.03086.09048-.07199.13838-.09256.20225-.09256l-.0479-.05143c-.05855.02571-.10112.03086-.14902.01029l.12241-.08229c-.07451-.06685-.25547-.03085-.27676-.17999-.0958.09257-.19693.31884-.35127.30856.0479-.05143.13306-.14399.17563-.14399-.01596 0-.06919.02057-.06386-.01543l.12241-.05143c0-.07199-.09048.05143-.11709.01543.07451-.072.02661-.072.09048-.12857.01596 0 0 .05657.03725.036-.02129-.04628-.02661-.12856.01065-.20056-.03726.04628-.0958.10285-.13306.08742-.07451-.05656.05855-.11313.05322-.19027-.06386.036-.06386-.05657-.16499.06171-.02129-.01543.02129-.07714.03726-.11314-.08516.02057-.20225-.12342-.25547.04114v.01543H6.9935c-.20757.02571-.22886-.24685-.39918-.27256l.02662-.046282c-.11177 0-.20757-.061712-.31402.010285-.02661-.010285-.01597-.113138.01597-.159421-.08516.005142-.11177.051426-.17564-.061712.10645-.056568.00532-.082282.0958-.035998-.07451-.071997-.06387-.159421-.21289-.061711.07983-.107996-.01064-.179992-.06919-.159422l.03193.113138c-.05322 0-.0958-.025713-.13305-.051426l.07451-.154279c-.14903-.257131-.44175.246846-.51626-.11828-.07452.107995.09048.09771.01596.231418-.07983-.035999-.13838-.29313-.17031-.298272-.11709-.1131382-.15435.226275-.27676.149136.01065.061711.01065.226275-.09048.277701-.08516-.025713-.09048-.262273-.03193-.308557.02129 0 .03193.015428.03193.035998.03194-.02057.07451-.046283.04258-.113137L4.92312.3137C4.88054.246846 4.75281.246846 4.78474.149136c-.07451.056569-.03193.09771.01597.133708C4.68362.190277 4.61443.267416 4.48669.21599c.02129.030856.03726.102853.02129.102853-.18095-.066854-.07451.11828-.1916.154278-.07451-.087424.01065-.221132-.10644-.13885-.07984-.056569-.03194-.159422 0-.210848-.10645.11828-.22354-.0514263-.29805-.0668541L3.96511 0c-.03193.0359984-.06387.0359984-.0958.041141l.05322.113138C3.88528.138851 3.85334.143993 3.8427.0925672c-.02129.0822818.05854.1954198.01064.3136998-.05854-.051426-.12241.082282-.17031-.066854.15434.025713-.05323-.159421.06919-.205705-.02129.020571-.05323.025713-.09048.010285-.01065-.015427 0-.035998.00532-.0462832-.17563-.107995-.02661.1954202-.17031.2262752 0-.092567-.07984-.159421-.0958-.133708.05854-.015428.06919.138851.03193.221133-.11177-.046284-.08516.077139-.13306.077139l.06387.020571c.01064.092567-.03726.092567-.08516.138851-.02661-.066855.03726-.066855.00533-.087425-.01065.174849-.20757-.102853-.2608.030856C2.95387.550261 2.95387.43198 2.90065.406267c-.06387.149136-.17031-.066854-.2395.071997.08515.09771.07451.066854.05322.210848L2.85275.52969l-.03726.21599c.05323-.02057.07452-.123423.11709-.113137-.01596.113137-.02128.082282.04791.164564-.14371-.138851-.09048.159421-.22354.082282L2.61857.60683c-.19693-.061712-.14903.246845-.34063.272559l.07984.015427c.04257.113134-.08516.071997-.10645.138854-.05322-.087427-.10645-.097713-.16499-.138854.0479.061712-.11177.071997 0 .246844l-.14902-.06171c-.15435.04628.05322.31884-.06919.38055-.04258-.10799-.13838-.12342-.12242-.24684-.03725.03085-.07983.04628-.03193.09771-.06387-.03086 0 .18513-.10112.14399.01596.04629.09047.12343.0479.15428-.02129-.01028-.03726-.036-.03726-.036.03726.036-.00532.10286.10645.14914-.32466-.11828-.24483.2777-.52691.2057-.03194.09771-.07984.21085-.12241.28285-.02129-.02057-.04258-.03086-.02662-.036-.14902.05143.2129.22113.05323.2777-.180961-.02571-.04258-.10799-.117093-.10285-.303371-.15428-.053223.16456-.271437.15428V2.4736c-.143702.01543.026611.21599-.042579.30856 0 0-.026611-.01543-.0479-.02057.11709.13885.127735.29827.133057.41141-.11709-.07714-.0479-.072-.18628-.09257 0 .05143.212892.06171.212892.15942-.079835.00515-.170314.05143-.308693.02057 0-.03085.015966-.06171.026611-.09256-.202247-.01029-.031934.11828-.079834.15942l-.079835-.03086c-.010644.15428.191603.20056.13838.34456h.063867c.186281.11828-.127735.04114.010645.15428l-.212892-.01029c.042579.06685.170314.22113.196925.31884-.154346-.06685-.207569-.19542-.292726-.28284-.010645.05657-.015967.19542.085157.23142-.015967-.02572-.063868-.05657-.026612-.07714.149024.08742.228859.17485.218214.28284-.404494-.036-.122413.27256-.420461.36513.154346.19542-.0372562.40627.031934.64797.298048-.13885.021289.06685.335304-.01029.026612.04629.031934.06686.010645.07714l-.149024.20057c-.079835.06171-.085157-.036-.154347-.01029C.18628 5.65689.0585452 5.6106 0 5.7186c.106446-.04629.170313 0 .149024.08228l.117091-.13885c.207569.11314-.2128921.22113.005322.33941l-.11709-.02057c.085156.06685.122412.32399.404494.29313-.026612.03086-.095801.08228-.13838.05657.058546.22113.468362.28799.420462.50398l-.074513.02571c.042579.02057.159669-.02057.122413.06171-.026611.01543-.074512.03086-.06919.04628.037257 0 .180957.00515.170314.072l-.101124.01543c.047901.23142.372557.12342.526907.2057-.17564.14914-.11709.32399-.07983.40627l-.02662.02057c.17032.19028.4524.144.68658.19542-.03726.28799.33531.34456.47901.56569-.01065-.05143.09048-.15428.13305-.15942.02662.06171.20225-.08228.10113.10285l-.01597-.01028c-.05322.20056.07451.2057.15435.23656l.11709-.24685c.02661.22113.18628.2417.32466.23656.1437-.00514.26611-.02571.2874.16456.06919-.05142.13306-.04114.20225-.09771l-.03193.144c.1437.05657.22353.09257.41513.07714l-.0479.10285c.11177.01543.17032-.41141.2608-.41655l.02129.21599c.17563.01028.37788.18513.54819-.02057 0 .03085 0 .09256-.03193.10285.08516.01028.36191.108.28208-.18513.03193.19027.1916-.00515.26611-.108l.01597.14399c.04258-.20056.03194-.24684.12774-.32398.03193.01028.05322.10799.01064.07714.10645.05142.03193-.14914.15435-.09771l-.01065.09771c.09048-.01029.06919-.05657.08516-.17485.03193-.072.17031-.02057.22886.09771-.01597-.07714-.01065-.19542.05322-.17485.02661.04114.02129.07714.01597.09257.18628.04114.13306-.24171.2874-.15428.02129.04114.04258.06171.05323.06685-.11177.04629-.20225.08228-.20225.06686.05322.12342.15434.09771.15967.30341.03725-.12856.06386-.38055.18096-.36513.01064.01029.02128.02057.03193.036v.01543s.03725-.01543.04258-.04628c.03725 0 .06386.00514.09048-.00515.06386.08743.13305-.01028.18095-.03085-.07983-.12342-.01596-.13371-.13305-.20571.01064 0 0 .02058-.02129.04115 0 .00514-.01065.01542-.01065.02571v-.01029c-.03193.02057-.06386.04114-.10112.072 0-.08228 0-.15428.08516-.11314-.02662-.09256-.05855-.18513-.06919-.23142.16499.13886.34062.16457.42578.25199.07451-.15428.26611-.25199.14902-.5194.00533-.05143.09048.02571.12774.05142 0 .036-.02129.05143-.00532.09257.01596-.10799.17031-.18513.0479-.33427.13838-.00514.08515.16456.16499.04628l.03193.05657c.21289 0 .20225-.1697.19693-.32398-.01065-.16457-.03194-.30856.22886-.31884-.03194 0-.0479.00514-.07984-.01029.35127-.20056.22886-.66854.60142-.88453.09048-.072-.02661-.12342-.0958-.20571l.15967.02572-.14903-.14914c-.10112-.16456.45772-.14914.23419-.3857h-.11177c.03193-.05656-.03194-.20056.09048-.17484-.01597-.01029-.10645-.036-.0479-.05143l.08515.01028c-.03725-.05656-.07983-.11313-.12773-.1697.06919-.11828.32998.04628.35659-.144-.02661-.07199-.23418-.20056-.29273-.17485-.00532.02572-.05322.06686-.13838.06686l-.04257-.05657c-.24483-.01543-.5003-.04628-.68126.072l.14903.08742-.12242.02057v-.07199c-.11709.03599-.02129.06171.0479.09771-.06386 0-.11176.01028-.13305.02571l.23418.10285c-.0958 0-.18628-.05657-.25015-.00514.10112.05142.22354-.01543.28208.05657-.11709.03085-.20757 0-.11709.06171-.06387 0-.10112-.01543-.12773-.04114.06919.05142.01596.11314.1437.15428-.13838.01542.01064.14913-.21822.09771.05323.02057.15967.10799.15967.14913-.25547-.13371-.05322.13371-.3353.036.23418.11828.04258.20056.1437.33427-.01597-.01028-.05322-.036-.03726-.036-.03725.04114-.11176.02572-.17031.036.1916.08228.19693.17485.29273.26742-.21289-.02572-.20225-.13371-.38853-.19542.15435.06685.10645.16456.2395.2057-.13305-.01028-.07451.01029-.2395-.04114.22886.12342.02129.06171.13838.16971-.14902 0-.22354-.10285-.1916 0-.08516-.01029-.13306-.108-.13306-.108l.05322-.01028Zm-1.0272 1.52221s.02661-.02057.03193-.02571c-.00532.00514-.01596.01543-.03193.02571Zm-.14902.072s.04257-.01543.06919-.02571c.02661.04114.0479.09257.02661.09771-.00533-.036-.05323-.04114-.0958-.072Zm.8356.70454c-.01597.036-.04258.01543-.06387-.00514.01064-.01029.02661-.02572.04258-.04629v-.01542s.01596.05142.02129.06685Z"></path>
</svg>