<svg class="svg--close" xmlns="http://www.w3.org/2000/svg" viewBox="0 0 36 36">
  <path d="M3.3 26.4c.2.3 0 .2-.1.4.2.4.2.1.4.2.1.3.1.6.3.7H4c.1.3.6.8.7 1.2h.1c-.1 0-.2 0-.2.1.1.1.2.3.3.3-.1-.1-.1-.1-.1-.2l.1.2c.2 0-.1-.2-.1-.3.2.3.4.7.7.9.1 0-.4-.5-.1-.3l-.4-.3c.4.1-.2-.2.2-.1.4.4.4.6.8.9 0 .1-.1 0-.1.2.5.7.7.2 1.1.7.1.2 0 .3.4.5v-.2c.5.3.1.4.7.7 0-.1-.3-.3-.2-.3.4.1.2.2.4.4l.1-.1c.5.3 1 .8 1.6 1.1 0 0-.1-.1.1-.1l1.2.6c.4.1.9.2 1.3.3l.3.2c.1 0 .1 0 .1-.1.3 0 0 .1.1.2.2 0 .3 0 .1-.1.5.2 1.5.6 2.1.6h-.1c.5 0 .5.3.9.3H16c1 0 2.1.2 2.9-.1.2.2 1-.1 1.1.1.6-.2.4-.2 1.2-.4.2 0 .3.1.6 0v-.1h.4l.1-.2h.2c-.1 0-.2.1-.2.1.4 0 .9-.3.9-.4l.9-.2h-.3c.5 0 0-.2.5-.2l.1.1c.2-.1.6-.4 1-.5h-.1c.6-.3 1.3-.6 1.9-1-.2.2-.1.3.1.2v-.2c.2 0-.2.2.1.1.2-.2.1-.2-.1-.2l.3-.2h-.1c.2 0 .4-.5.7-.5.6-.4.9-.7 1.3-1.1.1.1.3-.1.5-.2l.9-1.2c.3-.3.1 0 .3-.1-.1-.1.3-.5 0-.3.2-.3.3-.4.5-.6.2-.2.3-.4.6-.7v.2c.1-.1.1-.3.1-.3.7-.7.8-2.1 1.3-2.6l.4-.7c.1-.3-.1.2-.1-.1.1-.2.2-.4.3-.5 0-.2.1-.3.1-.5.1-.3.1-.6.3-.9-.1-.3 0-.8.1-1.2 0-.2.1-.5.1-.7v-.6h.1c.1-.2 0-.2 0-.4.1 0 .1.2.1.1.1-.8 0-1.6-.1-2.4-.1-.4-.2-.8-.2-1.2l-.1-.6-.3-.8c-.2-.6.3-.4-.1-1.1l-.1.2c-.1-.6-.3-1.2-.5-1.7-.3-.5-.5-1.1-.7-1.6v.2c-.2-.2-.5-.8-.4-.8-.1-.1-.1 0-.2-.1-.2-.2-.2-.6-.4-.7v.1c0-.1-.4-.6-.2-.5-.3-.3-.5-.7-.7-.9-.1-.3-.6-.5-.5-.7-.1.1-.6-.5-.8-.7 0 .1-.2-.1-.2 0-.2-.2-.4-.4-.3-.5-.6-.2-.8-.9-1.3-.9l-.5-.5c-.2-.1-.4-.3-.5-.4-.4-.2-.7-.5-1.1-.7 0 .2.8.5.7.6-.6-.5-1-.8-1.8-1.1-.2-.1.1.1.1.2-.3-.2-.7-.3-1.1-.5-.4-.1-.7-.3-1-.4l.1.1c-.1 0-.3-.1-.3-.1l.1.1c.3-.1-.5-.4-.5-.5.2.3-.7-.1-.4.3-.1 0-.2-.1-.2-.2-.1 0-.2 0-.1.1-.5-.2-.3-.2-.8-.3l.1.1c-.2-.1-.4-.2-.8-.3l.1.1C19.4.8 19 .6 18.2.6c.2.2-.3 0-.3.2h-.4l.2-.1c-.3 0-.7-.1-1 0h.3-.7l.4-.1c-.4-.1 0-.2-.4-.1.1 0-.4 0-.5.1h-.6c-.1.1.1.2 0 .2-.2-.1-.8.1-1.1 0 .1 0 .1.1.1.1V1c-.1.1-.2.1-.1.1-.5.1.1-.2-.4 0h.1c-.6.2-1.1.2-1.6.5-.1.2.4-.1.3.1-.4.1-.8.2-1.1.3-.4.1-.7.3-1.1.4l.1-.1c-.2-.1-.4.4-.8.5h.1c-.4.3-.9.5-1.6.9h.1c-.2.2-.6.4-.8.7-.1 0-.3.1-.2 0-.3.4-.7.7-1 1-.4.3-.7.6-.9 1l.1-.1-.6.5c0-.1 0-.1.1-.3-.1 0-.3.2-.4.3.2-.2 0 .1 0 .2h-.1c-.1.4-.2-.1-.4.4h.1c-.2.2-.4.3-.5.5 0 .1.2-.1.3-.1-.2.2-.6.3-.6.7.1-.1.2-.3.3-.3-.1.2-.1.3-.2.4l-.2.5V9c-.4.2-.5.6-.9 1 .4-.4.1 0 .3 0 0 .1-.1.3 0 .3-.2.2-.1.4-.4.6 0 0-.1.2 0 .2-.2.3 0-.1-.1-.1-.3.4-.2 1.1-.7 1.7-.2.6-.4.6-.6 1.2 0 .2.2-.1.2-.1 0 .3-.1.5-.2.8 0 0 .1 0 .1.1 0 .2-.2.1-.2.4l.2-.2c-.1.3-.2.5-.3.8.1.1.1-.2.2-.2-.1.3-.2.8-.3.9v-.2c0 .1.1.1.1 0 .1-.3 0-.4 0-.4l-.1.2c-.2-.2.2-.8.2-1.2l-.2.1.2-.4c0-.1-.1-.2-.2 0 0-.3.1-.2.1-.5l.1-.3s-.1-.1-.1.1c0-.5.3-.8.3-1 .3-.7.1 0 .5-.5l-.2-.3h.1c0-.1.1-.2 0-.2.2-.2 0 .1.2-.1 0-.4.4-.9.3-1 .1-.1-.1.3.1 0-.1-.2.2-.4.3-.7-.1 0-.2.3-.2-.1.2-.1.2-.6.4-.8.1.1.4-.5.6-.8 0 0 .5-.8.8-1.2.2 0 .4-.4.6-.6-.1 0-.1 0-.3.1l.2-.2c.1 0 .2-.1.3-.2h-.1c.3-.3.6-.5 1-.9.1.1-.1.5.4.2 0-.1-.1-.1-.2-.1 0 0 .2-.1.2-.2l-.3.1c.1-.2.1 0 .3-.2-.1 0 0-.1 0-.2l-.2.2c.1-.1.3-.4.3-.5 0 0 .1.1.2 0 .3-.3 0-.2.2-.4.1 0 .3-.2.4-.1.1-.1 0-.1.1-.2.2-.1.8-.6.7-.3.6-.3 1.2-.8 1.8-1.2.4-.2.8-.4 1.1-.4.1 0 .2-.2.2-.2.3-.1.3-.1.7-.3-.3 0 .1-.1-.3.1.4-.2.4-.3.9-.3-.2 0 .2-.2.4-.3l-.4.2c.2-.1.4-.1.6-.2l-.1-.1c.8-.4 1.5-.1 2.1-.5.2.1-.4.1-.2.2.4-.1.7-.3.9-.3.5-.1.5.1 1.1 0-.1 0-.1.2.3.2s.5-.2.2-.3h-.1c-.1 0-.3 0-.1-.1.2-.1.7-.1.6-.2.3 0 .1.1-.1.1h1.1c-.1 0-.2.1-.1.1.7 0 .3.1.8.2.3-.1-.1-.2.4-.1.3 0 .1-.1 0-.2.5.1.9 0 1.1.1l-.1-.1c.1 0 .3.1.4.1l-.2.1h.3c.1 0-.2.1.1.2.2 0 .6.1.7 0-.6-.1.1-.1-.4-.2.1 0 .2 0 .4.1.6 0 .2.2.8.4-.1-.1.2-.1.3-.1-.2-.1-.1.1.1.2.4 0 .4.1.6.2h-.2c-.2 0 0 0 .2.1 0 0-.2-.1-.1-.1.2.2.7.1 1 .3.2 0 .1-.1.2-.1.4.2.5.1.9.4-.2 0-.2 0 .1.2l-.6-.3.4.4c-.2-.1-.4-.3-.6-.3.2.2.2.1 0 .2.4 0 .5.4.9.4l.1-.2c.6.1.9.6 1.5.9l-.2-.1c0 .1.4.2.6.4 0-.1.2 0 .3 0 0 0 .4.3.4.5l.3.1c.5.3.4.6.9.9-.1-.2.2 0-.1-.4.1.1.3.2.2.3.1 0 .3.4.5.5 0 .1 0 .2.2.3 0 0 .2.3 0 .2.6.3 1.1 1.2 1.6 1.5.2.3.5.8.7 1.1v-.1c.3.4 0 .4.3.9.3.2-.1-.3 0-.2.3-.1.4.6.7.9v-.1c.2.2.2.7.5 1.2 0 .4.2 1 .3 1.4 0-.2 0-.2.1-.2.1.2-.2 0-.1.4.1.1.3.4.4.4 0-.1-.1-.3-.1-.4.2.1.2.5.2.7h.1c.1.6 0 .7.2 1.3l-.1-.1c-.1.4.1.3.1.7l.2.1v1.3c.1-.3.1-.8.1-1.1 0 .2.1.8 0 .9v-.3c-.1.3-.1.7-.1 1.2.3-.1.2 1.2.3 1.6-.1.4-.1.8-.1 1.3 0 .4-.1.9-.2 1.4-.2-.4 0 .3-.3.2 0 .2-.1.3-.1.3v.7c0 .2.1-.2.2-.2-.1.5 0 .2 0 .6-.1-.1-.2.1-.2.4V23c-.3.6 0 .7-.3 1.3l.2-.2c-.2.3-.5 1.3-.8 1.5 0 .1 0 .2.1 0-.2.4-.4.8-.7 1.2-.3.4-.5.7-.7 1.1h.1c-.1.1-.2.2-.3.4 0 0 .1 0 0 0-.1.1-.3.3-.4.5l.2-.1c-.2.4-.5.6-.7.8-.2.2-.5.4-.8.6.1.1-.3.7-.5.9-.4.4-.7.6-1 .9-.3.2-.7.4-1.1.7-.2.3-.5.6-1 .8-.4.3-.9.6-1.3.8.1-.1-.1-.1-.2-.1-.2.1-.6.1-.5.3h.1c-.1.2-.5.4-.8.5l-.1-.2c-.4.3-.9.5-1.5.6-.5.1-1 .2-1.2.4h-.7v.1c-.6.1-.9.2-1.6.2l.2.1c-.4 0-.6-.3-.9-.3l-.1.2c-.7.1-1.5.1-2.2 0 0 0 0 .1.1.1-.3 0-1.4 0-1.2-.3 0 .1-.8-.1-1.1-.2v.1c-.3-.2-.3-.3-.7-.4-.1 0-.1.1 0 .1-.4 0-.2-.2-.7-.2l.1.1c-.4-.1-.3-.1-.5-.3-.2-.1-.7-.2-.8-.1 0-.1-.2-.2-.4-.3 0 0 0 .1.1.1-.6-.1-.8-.5-1.3-.6h-.1c.5.2.8.4.8.4 0 .1-.4-.1-.2.2-.3-.2-.7-.6-1.1-.7h-.1c-.1 0-.2-.1-.2-.1-.1 0-.2-.1-.3-.1-.1 0-.4-.2-.6-.3.1-.1-.2-.2.1-.2l.1.1s.1 0 .1.1c.1.1.3.2.4.3-.1-.1-.2-.3-.4-.3 0-.1-.1-.2-.1-.3-.3 0-.8-.2-.9-.2-.5-.4-1.2-.9-1.3-1.3-.1-.1-.2-.1-.3-.1.1.1.1.2.2.2-.2-.3-.8-.7-.7-.9-.4-.2.1.3-.3-.2v.1c-.5-.4-.8-.8-1-1.2-.2-.5-.5-.9-1-1.3l.1.1c-1-1.2-1.5-2.7-2.2-4-.2-.4-.1-.5-.1-.7H1v-.5c0-.3-.2-.6-.3-.8-.1-.3-.3-.6-.2-1l.1.1c-.1-.3-.1-.9-.2-.8 0 0 .1-.1 0-.2H.3v-.7c-.1-.5-.3.1-.3-.7 0-.3.1-.8.2-.7 0 .1.1.3.1.3v-.3c.2 0 .4-.2.5.4l-.1.4.2-.2v-.4c.1.2 0 .3 0 .5 0 0 .1.1.1.2l-.2.4c.1 0 .1-.2.2.1 0 .2-.2-.2-.2.2.2.2.2.1.2.4.1 0 .1 0 .1-.1 0 .2.1.6 0 .7.1.2.1.7.3.7v.6c.1-.4.2.7.4.6-.2.2.2.8.2 1.3v-.1c.1.2.2.3.3.5-.1.1 0 .5 0 .7.3.2.1-.3.3-.2-.1 0 .1.6 0 .5.2.2.1.2.3.2-.2.1.1.2.1.5.3.3.2 0 .4.4.1.1 0-.3-.1-.3zm6.7 6.8c-.1 0-.1-.1-.2-.1.1.1.1.1.2.1zm.8.4c-.1 0-.2-.1-.3-.1v.1c0-.1.1 0 .3 0zm-2-.1c.1.1.2.1.2.1 0-.1-.1-.1-.2-.1 0-.1 0 0 0 0z"></path><path d="m23.4 22.4-.2.2c-.1 0 .1-.1.1-.2-.1 0-.2.1-.2.1l.1-.1c-.1.1-.1-.1-.3 0l-.2.2s-.1 0 0 0h.1-.1c.1-.1.1 0 .2-.1h-.2c.1-.1.1 0 .2-.1v.1c.1-.2 0 0 .2-.2 0-.1-.1 0-.2-.1-.1 0-.1.1-.2.2-.2 0 .2-.4 0-.3-.1.1-.3.2-.2.1l.2-.1c-.1-.1-.2.2-.2 0h.1c.1-.2-.1 0-.1 0l.1-.1c-.1-.1-.3-.1-.4-.1 0 0 .1 0 .1-.1-.2 0-.2-.2-.2-.4l-.1.1s0-.1.1-.1c0-.1-.1.1-.1.1s0-.1.1-.1c-.1 0-.4 0-.3-.2 0-.1-.3.1-.2 0-.1-.1-.3-.2-.2-.4-.2.1-.1-.2-.3 0 0-.2.1-.2.1-.4l-.2.1.1-.1-.5-.4.1-.1h-.1s0 .1-.1.1 0-.2 0-.2h-.2.1c-.2.1.1-.1 0-.1l-.1.1c0-.1 0-.1-.1-.2l.1-.1c0-.1-.2-.1-.3-.2 0 .1-.1.2-.2.2l.1-.1c-.1.1 0 .1-.1.1 0 0 .1-.2.2-.2 0 0 .1 0 .1-.1-.1.1 0-.2-.1-.1-.1-.1-.2-.1-.3-.2-.1.1-.1 0-.2.1 0-.1 0-.2-.1-.3-.1 0-.1.1-.2.1.1-.1 0-.2.1-.2-.1-.1-.1-.1-.3-.1 0 0 0 .1-.1.1v-.1c-.2 0 0-.5-.3-.4h-.2c0-.1.1 0 .1-.1-.2 0-.1-.2-.3-.2.2-.3-.2-.2-.2-.5l-.1.1c-.1 0 0-.1 0-.1s0 .1-.1.1c-.3-.1-.3-.5-.4-.7-.1-.1-.4.3-.3 0l.1-.1c-.3 0-.3-.3-.5-.3 0 0 .1-.1.1 0 .1-.1-.1-.1-.2 0l.1-.1c0-.1-.2 0-.1-.1-.1 0-.1-.1-.2 0 0-.1-.1-.1-.1-.2-.1.1 0-.1-.2 0 .2-.2 0-.2-.1-.2.1 0 0-.1.1-.1h-.2c.1-.3-.3 0-.1-.3-.2 0-.4-.1-.5-.1.2-.2.1.1.3-.1-.2 0-.4.1-.4-.1l.1-.1c-.2 0-.2-.2-.3-.2h.1s0-.1-.1 0-.3.2-.3.2c.2-.2 0-.1.3-.4 0 0-.1 0-.1.1 0 0 0-.1.1-.1-.1 0-.1.1-.2 0 0 0 .1 0 .1-.1-.1 0-.2.1-.2 0h.1c-.1-.1-.3 0-.3-.1.2-.1 0-.1.1-.2h-.1v.1s-.2 0-.2-.1h.1-.1v.1c-.1 0-.2.2-.2.1v-.1H14l.2-.2c-.1.1-.1-.1-.3 0l.1-.1-.1.1s0-.1.1-.1c0-.1-.1.2-.1 0 0-.1-.2-.1-.2-.2.1-.2.1 0 .2-.1-.1-.1-.3 0-.4-.1-.2.2 0-.2-.1-.1l.1-.1c0-.1-.2-.1-.3-.1h.1c0-.1-.1-.1-.1-.2-.1 0-.1 0-.1.1.2-.4-.4-.1-.2-.4h.1-.1c-.1.1 0 .1-.1.1h-.1c.1 0 .1-.1.2-.2l-.1.1c.1-.2-.2.2-.1 0h-.1c.1-.1.1 0 .1-.1 0 0-.2.1-.2 0h.1c.1-.1 0-.1 0-.2v-.1c-.3.2-.1 0-.4.1.2-.1.1-.1.2-.2 0 0 0-.1.1-.1-.1.1 0-.1-.1 0l.1-.1c-.1 0 0 .1-.1.1-.2.1 0-.3-.2-.2-.1 0-.3.1-.4.1 0-.1.1-.1.1-.1 0-.1 0-.1-.1-.1l.1-.1s-.1.1-.1 0c0 0 .1-.1.2-.1h-.2c0-.1.1-.1.2-.1h-.3v.1l.1-.1c.1 0 0 .1 0 .1-.2.2.1.1.2.1l-.2.1.2-.1-.1.1c0 .1.1 0 0 .1h.1l-.1.1c0 .1.2 0 .1.1.1 0 .1-.1.3-.2l-.2.3.1-.1v.1c.1 0 0 0 .1-.1-.1.1.2.1 0 .2.1-.1 0-.1.1-.1-.2.2.1 0 0 .1s-.1 0-.1.1c.2-.1 0 .1.1.1.1-.1.1 0 .2 0v.3c.1-.1.2 0 .2 0-.2.2-.2.2-.3.2h.1l-.1.1s.2 0 .2.1c.1-.1.2-.3.3-.3 0 0-.1.1-.2.1 0 0 .1 0 0 0l-.1.1c0 .1.1-.1.1 0-.1.1 0 .1-.1.1v.2l.1-.1s-.1.1-.1.2c.1 0 0 0 .1-.1 0 0 0 .1-.1.1.1 0 .1.1.2 0 .2 0 .1.2.2.3.1 0 .1.1.2 0 0 0 0 .1-.1.1.1 0 .1 0 .1.1-.1 0 0 .1-.1 0 0 .1 0 .1.1.1-.1.1-.1.1 0 .1v-.1l.1.1-.1.1c0 .2.4-.1.2.2.1-.1 0-.1.1-.2 0 .1-.1.3-.1.3 0 .1.2-.1.2 0 0 0 .1-.2.2-.2 0 .1-.1.2-.2.2 0 0-.1 0-.1.1v.2c.1 0 .1-.1.1-.1 0 .1.1.1.1.2l.1-.1c0 .1.1 0 .2 0 0 .1-.2.1-.1.1 0 .1-.1.1-.1.1.1 0 0 .2.1.2h-.1.1l.1-.1v.1c.1 0 .1-.2.2-.2 0 .1.1 0 0 .1 0-.1-.1.1-.2.1 0 .2.2-.1.2 0l-.1.1s.1-.1.2-.1c0 .1.1 0 .1 0 .1-.1.1 0 .1 0h-.1c.1-.1 0 .2.1.2 0 .1-.1.1-.1.2.1 0 0 .1.1.1.1-.1 0-.1.2-.1h-.1l.2-.1h-.1c.1 0 .1 0 .1-.1-.1.2.1 0 .1.1l-.2.2c0 .2.2 0 .3.1v-.1c.1-.1.1 0 .1 0-.1.1-.1.1-.1.2 0 0 .1.1.2-.1l-.1.1c0 .1.3-.1.3 0-.1.1-.1.1-.2.1 0 0 0 .1.1 0 0 .1.2 0 .1 0l.1-.1s.1 0 .1-.1c-.2.3.2.2.1.4.1 0 .1.1.2.1 0 .1.2-.2.2 0-.1.1-.1 0-.1.1-.2.2.1.1 0 .2 0 .1.2 0 .2.1.2-.1.3 0 .4 0-.1.1-.1 0-.2.1 0 0 .1-.2.2-.1 0 .1 0 .1-.1.2-.1.2.1.1.1.1l-.1.1c.1 0 .2-.1.3 0 .2-.1 0 .1.1 0l-.1.2h.3c-.1.1-.2.1-.3.1 0 0 .1.1.2 0H17c.1-.1.2-.1.3 0-.3.3.1.2-.1.5.2 0 .1.2.3.3.2-.3 0 0 .2-.2v.2c0 .1-.1 0-.1.1s-.1.1-.1.2c.1-.1.1-.1.1 0l.1-.1c.2 0-.1.3.1.2h-.1c.1 0 .2.2.4 0l-.1.1c.1.1.4 0 .4.2 0 0 .1-.1.1 0 0 0-.1 0-.1.1h.1-.1c0 .2.3 0 .4 0-.2.2-.1.3-.1.3.1.1.3.1.5.1-.1.2.1.3.2.5 0 0 .1-.1.2-.1 0 0 .2 0 0 .1-.1.2 0 .2 0 .2l.2-.2c-.2.4.4.2.2.5h.2l-.1.1c0 .1.1.1.2.2l-.1.1s.3-.2.4-.2l-.1.2c.1.1 0 .3.2.2l-.1.1s0 .2.2 0c-.1.1.1.1.2.1l-.1.1c.2-.1.2-.1.3-.1l-.1.1c0 .1.1-.1.1 0h-.1.2c.1 0 0 .1 0 .2.1-.1.2-.1.2 0l-.1.1c0 .1.2 0 .2.1v.1l-.2.1c-.1.1-.1.2-.2.2.1 0 .3-.1.3 0v.1c-.1.1 0 .1 0 .1l.2-.2-.1-.1c.1 0 .1-.1.1 0 .1 0 .1-.1.2-.1-.1.2-.1.3-.2.4.1 0 .2.1.4 0 0 0 0 .1-.1.1h-.1c.1 0 .1.1.3 0 0 .1-.1.1-.1.1-.1.3.5-.1.4.3v-.1c0 .3.5.2.4.6 0 .1.1 0 .2 0l-.1.1.2-.1c.2 0-.1.4.1.3l.1-.1.1.1s.1-.1.1 0v.3h.2c0 .1-.2.2-.2.3.1 0 .3-.1.3-.1s0-.1.1-.1c.2-.2.4-.3.4-.5h-.1l.1-.1c0-.1 0-.1-.1 0l.1-.1-.2.1c.1-.1.1-.1.1-.2-.1 0-.1.2-.2.2 0-.1.1-.2 0-.1l.1-.1H24c.1-.1-.1-.1 0-.2l-.2.1c.2-.1-.1-.1.1-.3-.2.1-.2 0-.3 0v-.2c-.1.1-.2.1-.3.2.1-.2.2-.1.3-.3-.1.1-.2 0-.3.1.1-.1 0-.1.1-.2-.2.2-.1 0-.2.1 0-.1.1-.2 0-.2h.2zm-1.4-.9s0 .1 0 0c0 .1 0 0 0 0zm-.1-.1s0 .1 0 0v.1-.1zm-.5.9c.1 0 .1 0 0 0 .1 0 0 0 0 0z"></path>
  <path d="m13.3 23.8-.2-.2c0-.1.1.1.2.1 0-.1-.1-.2-.1-.2l.1.1c-.1-.1.1-.1 0-.3l-.2-.2s0-.1 0 0v.1-.1c.1.1 0 .1.1.2v-.2c.1.1 0 .1.1.2h-.1c.2.1 0 0 .2.2.1 0 0-.1.1-.2 0-.1-.1-.1-.2-.2 0-.2.4.2.3 0-.1-.1-.2-.3-.1-.2l.1.2c.1-.1-.2-.2 0-.2v.1c.2.1 0-.1 0-.1l.1.1c.1-.1.1-.3.1-.4 0 0 0 .1.1.1 0-.2.2-.2.4-.2l-.1-.1s.1 0 .1.1c.1 0-.1-.1-.1-.1s.1 0 .1.1c0-.1 0-.4.2-.3.1 0-.1-.3 0-.2.1-.1.2-.3.4-.2-.1-.2.2-.1 0-.3.2 0 .2.1.4.1l-.1-.2.1.1.4-.5.1.1V21s-.1 0-.1-.1.2 0 .2 0v-.2.1c-.1-.2.1.1.1 0l-.1-.1c.1 0 .1 0 .2-.1l.1.1c.1 0 .1-.2.2-.3-.1 0-.2-.1-.2-.2l.1.1c-.1-.1-.1 0-.1-.1 0 0 .2.1.2.2v-.1s0 .1.1.1c-.1-.1.2 0 .1-.1.1-.1.1-.2.2-.3-.1-.1 0-.1-.1-.2.1 0 .2 0 .3-.1 0-.1-.1-.1-.1-.2.1.1.2 0 .2.1.1-.1.1-.1.1-.3 0 0-.1 0-.1-.1h.1c0-.2.5 0 .4-.3v-.2c.1 0 0 .1.1.1 0-.2.2-.1.2-.3.3.2.2-.2.5-.2l-.1-.1c0-.1.1 0 .1 0s-.1 0-.1-.1c.1-.3.5-.3.7-.4.1-.1-.3-.4 0-.3l.1.1c0-.3.3-.3.3-.5 0 0 .1.1 0 .1.1.1.1-.1 0-.2l.1.1c.1 0 0-.2.1-.1 0-.1.1-.1 0-.2.1 0 .1-.1.2-.1-.1-.1.1 0 0-.2.2.2.2 0 .2-.1 0 .1.1 0 .1.1v-.2c.3.1 0-.3.3-.1 0-.2.1-.4.1-.5.2.2-.1.1.1.3 0-.2-.1-.4.1-.4l.1.1c0-.2.2-.2.2-.3v.1s.1 0 0-.1-.2-.3-.2-.3c.2.2.1 0 .4.3 0 0 0-.1-.1-.1 0 0 .1 0 .1.1 0-.1-.1-.1 0-.2 0 0 0 .1.1.1 0-.1-.1-.2 0-.2v.1c.1-.1 0-.3.1-.3.1.2.1 0 .2.1v-.1h-.1s0-.2.1-.2v.1-.1h-.1c0-.1-.2-.2-.1-.2h.1v-.1l.2.2c-.1-.1.1-.1 0-.3l.1.1-.1-.1s.1 0 .1.1c.1 0-.2-.1 0-.1.1 0 .1-.2.2-.2.2.1 0 .1.1.2.1-.1 0-.3.1-.4-.2-.2.2 0 .1-.1l.1.1c.1 0 .1-.2.1-.3v.1c.1 0 .1-.1.2-.1 0-.1 0-.1-.1-.1.4.2.1-.4.4-.2v.1-.1c-.1-.1-.1 0-.1-.1V13c0 .1.1.1.2.2l-.1-.1c.2.1-.2-.2 0-.1v-.1c.1.1 0 .1.1.1 0 0-.1-.2 0-.2v.1c.1.1.1 0 .2 0h.1c-.2-.3 0-.1-.1-.4.1.2.1.1.2.2 0 0 .1 0 .1.1-.1-.1.1 0 0-.1l.1.1c0-.1-.1 0-.1-.1-.1-.2.3 0 .2-.2 0-.1-.1-.3-.1-.4.1 0 .1.1.1.1.1 0 .1 0 .1-.1l.1.1s-.1-.1 0-.1c0 0 .1.1.1.2v-.2c.1 0 .1.1.1.2V12h-.1l.1.1c0 .1-.1 0-.1 0-.2-.2-.1.1-.1.2v-.2l.1.2-.1-.1c-.1 0 0 .1-.1 0v.1l-.1-.1c-.1 0 0 .2-.1.1 0 .1.1.1.2.3l-.3-.2.1.1h-.1c0 .1 0 0 .1.1-.1-.1-.1.2-.2 0 .1.1.1 0 .1.1-.2-.2 0 .1-.1 0s0-.1-.1-.1c.1.2-.1 0-.1.1.1.1 0 .1 0 .2H23c.1.1 0 .2 0 .2l-.3-.1v.1l-.1-.1s0 .2-.1.2c.1.1.3.2.3.3 0 0-.1-.1-.1-.2 0 0 0 .1 0 0l-.1-.1c-.1 0 .1.1 0 .1-.1-.1-.1 0-.1-.1h-.2l.1.1s-.1-.1-.2-.1c0 .1 0 0 .1.1 0 0-.1 0-.1-.1 0 .1-.1.1 0 .2 0 .2-.2.1-.3.2 0 .1-.1.1 0 .2 0 0-.1 0-.1-.1 0 .1 0 .1-.1.1 0-.1-.1 0 0-.1-.1 0-.1 0-.1.1-.1-.1-.1-.1-.1 0h.1l-.1.1v.1c-.2 0 .1.4-.2.2.1.1.1 0 .2.1-.1 0-.3-.1-.3-.1-.1 0 .1.2 0 .2 0 0 .2.1.2.2-.1 0-.2-.1-.2-.2 0 0 0-.1-.1-.1h-.2c0 .1.1.1.1.1-.1 0-.1.1-.2.1l.1.1c-.1 0 0 .1 0 .2-.1 0-.1-.2-.1-.1-.1 0-.1-.1-.1-.1 0 .1-.2 0-.2.1v-.1.1l.1.1h-.1c0 .1.2.1.2.2-.1 0 0 .1-.1 0 .1 0-.1-.1-.1-.2-.2 0 .1.2 0 .2h-.3s.1.1.1.2c-.1 0 0 .1 0 .1.1.1 0 .1 0 .1v-.1c.1.1-.2 0-.2.1-.1 0-.1-.1-.2-.1 0 .1-.1 0-.1.1.1.1.1 0 .1.2v-.1l.1.2v-.1c0 .1 0 .1.1.1-.2-.1 0 .1-.1.1l-.2-.2c-.2 0 0 .2-.1.3h.1c.1.1 0 .1 0 .1-.1-.1-.1-.1-.2-.1 0 0-.1.1.1.2l-.1-.1c-.1 0 .1.3 0 .3-.1-.1-.1-.1-.1-.2 0 0-.1 0 0 .1-.1 0 0 .2 0 .1l.1.1s0 .1.1.1c-.3-.2-.2.2-.4.1 0 .1-.1.1-.1.2-.1 0 .2.2 0 .2-.1-.1 0-.1-.1-.1-.2-.2-.1.1-.2 0-.1 0 0 .2-.1.2.1.2 0 .3 0 .4-.1-.1 0-.1-.1-.2 0 0 .2.1.1.2-.1 0-.1 0-.2-.1-.2-.1-.1.1-.1.1l-.1-.1c0 .1.1.2 0 .3.1.2-.1 0 0 .1l-.2-.1v.3c-.2-.3-.2-.4-.2-.5 0 0-.1.1 0 .2v-.1c.1.1.1.2 0 .3-.3-.3-.2.1-.5-.1 0 .2-.2.1-.3.3.3.2 0 0 .2.2h-.2c-.1 0 0-.1-.1-.1s-.1-.1-.2-.1c.1.1.1.1 0 .1l.1.1c0 .2-.3-.1-.2.1v-.1c0 .1-.2.2 0 .4l-.1-.1c-.1.1 0 .4-.2.4 0 0 .1.1 0 .1 0 0 0-.1-.1-.1v.1-.1c-.2 0 0 .3 0 .4-.2-.2-.3-.1-.3-.1-.1.1-.1.3-.1.5-.2-.1-.3.1-.5.2 0 0 .1.1.1.2 0 0 0 .2-.1 0-.2-.1-.2 0-.2 0l.2.2c-.4-.2-.2.4-.5.2v.2l-.1-.1c-.1 0-.1.1-.2.2l-.1-.1s.2.3.2.4l-.2-.1c-.1.1-.3 0-.2.2l-.1-.1s-.2 0 0 .2c-.1-.1-.1.1-.1.2l-.2-.3c.1.2.1.2.1.3l-.1-.1c-.1 0 .1.1 0 .1v-.1.2c0 .1-.1 0-.2 0 .1.1.1.2 0 .2l-.1-.1c-.1 0 0 .2-.1.2h-.1l.1-.1c-.1-.1-.2-.1-.2-.2 0 .1.1.3 0 .3h-.1c-.1-.1-.1 0-.1 0l.2.2.1-.1c0 .1.1.1 0 .1 0 .1.1.1.1.2-.2-.1-.3-.1-.4-.2 0 .1-.1.2 0 .4 0 0-.1 0-.1-.1v-.1c0 .1-.1.1 0 .3-.1 0-.1-.1-.1-.1-.3-.1.1.5-.3.4h.1c-.3 0-.2.5-.6.4-.1 0 0 .1 0 .2H12l.1.2c0 .2-.4-.1-.3.1l.1.1-.1.1s.1.1 0 .1l-.1-.2v.2c-.1 0-.2-.2-.3-.2 0 .1.1.3.1.3s.1 0 .1.1v.1c.2.2.3.4.5.4v-.1l.1.1c.1 0 .1 0 0-.1l.1.1-.1-.2c.1.1.1.1.2.1 0-.1-.2-.1-.2-.2.1 0 .2.1.1 0l.1.1v-.2c.1.1.1-.1.2 0l-.1-.2c.1.2.1-.1.3.1-.1-.2 0-.2 0-.3h.2c-.1-.1-.1-.2-.2-.3.2.1.1.2.3.3-.1-.1 0-.2-.1-.3.1.1.1 0 .2.1-.2-.2 0-.1-.1-.2.1 0 .2.1.2 0v.1zm.8-1.4zm.1-.1h-.1.1zm-.8-.5c0 .1 0 .1 0 0 0 .1 0 .1 0 0 0 .1 0 .1 0 0z"></path>
</svg>