<svg xmlns="http://www.w3.org/2000/svg" xml:space="preserve" style="enable-background:new 0 0 1285 1" viewBox="0 0 1285 1" fill="currentColor">
	<path opacity="0.75" d="M1229.4 1c-2.6 0-1.2-.1-1.7-.2-3 0-1.4.1-2.4.1-1.9 0-3.3-.1-4.8-.1h-.1c-2-.1-6 0-8.3-.1h-.3c.4-.1.4-.1.4-.2-1.2 0-2.1-.1-2.6 0h1.1-1.2c-1.1.1 1.6 0 1.6.1-2.3 0-5.1-.1-6.8-.1-.4.1 4.2 0 1.8.1h2.8c-2.1.2 1.7 0-.3.2h-7.7c-.8-.1.3-.1-.5-.1-5.2-.1-4.1.2-7.9.1-1-.1-1.4-.2-4.1-.1l.9.1c-3.5 0-2-.2-5.7-.1h2.2c-2.4.1-1.7-.1-3.5-.1l-.4.1c-3.8 0-7.9-.1-12-.1.2 0 .9.1 0 .1-5.2 0-11.2 0-16.2.1l-1.9-.1c-.4 0-.8 0-.3.1-2 0-.1-.1-1-.1-1.1 0-1.5 0-.8.1-3.5-.1-9.9-.2-13.6-.1h.7c-2.8 0-3.2-.2-5.9-.1h.5c-6.2 0-13 0-17.8.1-.9-.1-6.1.1-6.5-.1-3.5.1-2.5.1-7.5.2-1.3 0-2-.1-3.6-.1v.1l-2.2-.1-1.2.1h-1.5c.6 0 1.3 0 1.2-.1-2.4 0-5.9.1-5.9.1l-5.7-.1c.1 0 1.1 0 1.8.1-3-.1-.6.1-3.3 0 .4 0-.2-.1-.3-.1-1.4.1-4.6.1-6.9 0l.4.1h-13.7c1.7 0 1.3-.1-.1-.2l-.6.1c-.9-.1 1.5 0-.4-.1-1.8 0-1.2.1-.2.1h-2.2c-.1 0 .4 0 .5.1-.9-.1-3.7.1-5 0h-10.9c-.1-.1-1.6-.1-2.7-.1-2.8 0-6 .1-9.4.1-2.4 0-.7-.1-1.8-.1-.2.1-3.6.1-1.8.1-4.1 0-5.2 0-10.4-.1.6 0 1.2 0 .9-.1-.9 0-2.1 0-2 .1h.2c-5.8-.1-13.4.2-18.1.1h.3l-4.8-.1c-2.2 0 1.3.1-.3.1-5.2-.1-8.2 0-12.5-.1-3.3.2-11.7 0-16.2.1h.3-2.2c.1 0 1.3 0 .5-.1-9.8.1-20.2.2-30.2.3-3.7 0-2.1-.3-6.7-.1l1.3.1c-7.4-.1-15.1 0-22.4-.1h1.2c-1.5.1-5.7 0-5.7-.1-1.1 0-.3 0-1 .1-1.5 0-3.9-.1-4.7 0h.7c-1 0-4.7 0-3.7-.1h-7.4c-1.4-.1-4.7 0-5.1-.1.2.1-4.8.1-6.5 0 .6 0-1.5 0-.8.1-2 0-3.8 0-3.4-.1-3.6.2-7.3-.1-9.3.1-5.8-.1-11.2-.1-16.5-.2.2.1 5.8 0 5.6.2-5-.1-7.8-.2-12.8-.1-1.3 0 .7.1 1.2.1-5-.1-9.6 0-14-.1h.9-1.9.8c1.4-.1-3.5-.2-3.6-.2 1.5.2-4.4 0-2 .3-.6 0-1.3 0-1.2-.1-.9 0-1.1 0-.3.1-3.1 0-2-.1-4.8-.1 0 0 .6 0 .9.1-1.4-.1-2.9-.1-5.3-.1h.6c-4.1 0-7-.2-11.5-.1 1.3.1-1.5 0-1.8.2H788l1-.1c-2.1 0-4-.1-5.8 0h1.6-4 2.2c-2.1-.1.2-.1-2.6-.1.6 0-2.1 0-3.2.1-1 0-2.1-.1-3.7 0-.4 0 .3.1.1.1-1-.1-5 0-6.3-.1.4 0 .5.1.3.1l-.9-.1c-1 0-1.1 0-1 .1-3 0 .9-.1-2.6-.1h.7-10c-1 .1 2.8 0 1.7.1-4.7 0-9.7-.1-14.2-.1h.8c-.6-.2-3.4.1-5.6 0 .6 0 .7.1.6.1-3.1 0-6.3 0-11-.1h.6-6.8c-.6 0-1.7 0-1-.1-6.1.2-11.6-.1-17 .1h1-4.6c.4-.1.6 0 1.6-.1-.6 0-1.9-.1-3-.1 2.1 0 0 .1-.9.1.1 0-.2 0-.1-.1-2.4.1-.4-.1-3.7-.1h.2c-1.2 0-2.4-.1-3.7-.1-.5.1 1.3 0 1.4.1-1.9 0-3.7-.2-5.3-.1h2.7c-1.8.1-2 .1-3.4.1h.1-3.1.8c-2.3-.2-4.7 0-7.9-.2 3 .1.5.1.7.2-.8 0-2 0-1.7.1-1.5-.1-2.5.1-4.5 0-.1 0-1.6 0-1.2.1-1.9 0 .5 0 .3-.1-3-.1-7 .1-11.2 0-3.7-.1-4.4-.2-7.8-.2-1.2 0 .9.1.9.1h-5c.4 0 0 0-.5.1-1.4 0-.9-.1-2.8-.1.3 0 .7.1 1.4.1-1.7 0-3.3-.1-5-.1-.5 0 1 .1 1.6.1-1.9 0-5 0-5.6-.1h1.2c-.7 0-.4.1.2.1 1.6.1 2.4 0 2.5-.1h-1.2c1.3-.2 4.9 0 7.3 0l-1-.1 2.5.1c.5 0 .9-.1-.3-.1 1.8-.1 1.6 0 3.1 0h-.1 1.7c-.3 0 .3-.1-.8-.1 3.1-.1 5 .1 6.1 0h.2c4.3 0 .4.1 3.6.2l2.2-.2.4.1h1.2c1.6.1-.3 0 .7.1 2.1-.1 5.9 0 6.3-.1.8.1-2 0 .2.1.6-.2 2.6 0 4.6 0-.6-.1-2.4 0-.5-.1 1.2.1 3.8 0 5.4 0 .1.1 3.6 0 6.3.1-.2 0 5.2-.1 7.7-.1h-.1c.5.1 3.1.1 5.1.1-.1-.1-.4-.1-1.5-.1h1.8c.4 0 1 .1 2.2.1l-.5-.1c2.4 0 4.8.1 7.9 0 .2.1-2.5.2.8.3.1 0 .2-.1-.6-.1h1.6l-1.3-.1c1.4 0 .7.1 1.9 0 0-.1.8 0 .7-.1h-1.4c1.3 0 2.8 0 3.3-.1-.1 0 0 .1.9.1 2.4 0 .8-.1 2.2-.1.6 0 2.1 0 2.2.1.7 0 .8 0 1.1-.1 1.2 0 5.8 0 4.4.1h-.3.2c4.1.1 8.5 0 12.5 0 2.4 0 5.4 0 7.1.1.7 0 1.7-.1 1.4-.1 1.8 0 2.1.1 4.7 0h-1.9c2.4 0 2.9-.1 5.5 0-.9-.1 1.8-.1 2.9-.1l-1.7.1h3.5l-.6-.1c4.9-.1 8.8.2 12.6 0 1.3.1-2.7 0-1.5.1 2.3 0 4.6-.2 5.3-.2 3.1-.1 2.9.1 6.1.1-.4 0-.8.1 1.6.2 2.3 0 2.8-.1 1.4-.2h-.8c-.7 0-1.7 0-.8-.1h.3c1.1 0 4.2 0 3.5-.1 1.7 0 .7.1-.5.1h7.5c-.5 0-.9.1-.4.1 4.4 0 1.9.1 4.9.1 1.7-.1-.6-.1 2.4-.1 1.8 0 .4-.1-.3-.1 2.7.1 5.1 0 6.6-.1h-1.4 2.3l-.9.1h1.5c.9 0-.7.1 1.1.2 1.1 0 3.4 0 3.8-.1-3.5 0 .4-.1-2.6-.1h2.1-.3c3.4-.1 1.5.1 5 .1-.4 0 .8-.1 1.4-.1-1.4 0-.7.1.6.1h3.6-1.3c.5 0 1.6 0 3.1.1h-.9c1.7.1 3.9-.1 6.3 0 1.1 0 .1-.1 1.1-.1 2.7.1 2.9-.1 5.8 0-.8.1-1 .1 1 .1h-4.7l3 .1h-3.8c1.4.1 1.3 0 .6.1 1.9-.1 3.8.1 6.1 0l-.1-.2c3.4-.1 6 .1 10.3 0h-1.4c.6.1 2.7 0 4.1 0-.1-.1.8-.1 1.4-.1-.1 0 3.2 0 3.6.1l2-.1c3.5 0 4 .2 7.4.1-1-.1.5-.1-1.7-.2h2.2c.7 0 3.1.1 4.2 0 .5 0 .6.1 1.9.1.1 0 0 0 0 0s2 0 .9.1c3.5-.2 9.7 0 12.8-.1h7.7-.4c3.1-.1 1.9.2 5.4.1 1.8-.1-1.9 0-.7-.1.5-.2 4.2 0 6.6-.1h-.7c1.8-.1 4.4.1 7.4 0 0 0-.1 0 0 0 2 .1 5.8.1 8.7.2-.9-.1-1.3 0-.8-.1 1.3 0-.4.1 2.2.1.8 0 2.7-.1 2.9-.2H921c1.2-.1 3.1 0 4.4 0h-.2c3.7 0 3.7.1 7.7.1h-.4c2.2.1 1.8-.1 4 0l.7-.1c1.4 0 5 .1 7.5.1-1.4-.1-4.4-.1-6.3-.2 1.4 0 4.8 0 5.5.1h-1.8c1.7.1 4 .1 6.8.1-.5-.2 7.3-.1 9.4-.2 5 .1 9.9 0 15.7 0-2.1.2 1.7 0 1.3.2h2l4.1-.1c1 0-1.3 0-1.2-.1 3 0 1.2-.1 3.2-.1-.4.1 1 .1 2.7.1l-2.4.1c4.1.1 3.6-.2 7.7-.1h-1.2c2.1 0 7.9 0 10 .1.4 0 .9-.1-.1-.1 5.1 0 11.4.2 15.4.1h-.4c1 0 1.7.1 2.9 0h.1c.5 0 2.5.1 3.8 0h-1.1c5-.1 7.7.1 11.8.2 0-.1 3.9-.2 5.9-.2h-.1c5.8 0 9.9.1 15.2.2 3.3-.1 11.3-.1 16.7-.1-.8 0 .1.1 1.1.1 1.3 0 3.5.1 3.3 0h-.4c.9-.1 3.5-.1 5.6-.1l.3.2c5.3-.2 13.8.1 16.7-.1 1.3 0 2.9 0 4.1.1l-.1-.1h9.7l-.9-.1c2.5 0 3.1.2 5.4.2l.7-.1c4.3 0 8.7-.1 12.9 0-.1 0-.2-.1-.9-.1 2 0 7.8-.1 7.1.1.1-.1 4.4 0 6.8 0l-.4-.1c2 .1 2 .1 4.8.2.7 0 .6-.1-.3 0 2.2 0 1.7.1 4.3 0h-1c2.2 0 2 0 3.3.1 1.4 0 4.2 0 4.5-.1.3 0 1.5.1 2.8.1.2 0-.3 0-.5-.1 3.7-.1 5.5.1 8.1 0h.4-5.1c0-.1 2.4-.1.5-.2 1.9.1 5.2.2 7.5.1h.3-.2 3.4c.3-.1 2.7 0 3.9 0-.1.1 1.5.1 0 .1h-1.5.1-3c.9 0 1.9.1 3.2 0 .6.1 1.3.1 1.7.1 1.6-.1 4.8-.2 5.2-.2 3.6 0 8.6 0 10.8.2 1 0 1.2 0 1.6-.1h-1.6c2.1 0 6.1 0 6.6.1 2.6 0-1.5-.1 2.1-.1h-.5c7-.2 11.4.3 19.2.1h-.9c8.9-.1 18.3.1 27.1-.1 2.5 0 2.8 0 4.3.1l.5-.1 2.6.1c3.7.1 6.4-.2 11.1-.1l-.6.1h5c.2 0 .6.1 1.2 0h.1l4.1.1c3.2 0-.5-.2 4.2-.2 1.7 0 4.9.1 4.3.2-.7 0-1.8 0-1.8.1h1.6c.3.1 1.5.3-2.4.4l-2.7-.1-.9.1h2.3c-1.3.1-2.1 0-3 0-.2 0-.6.1-1.1.1l-2.7-.1c-.3.1 1.2.1-.6.1-1.2-.1 1.2-.1-.9-.2-1.3.1-.9.1-2.4.1-.2 0 .1.1.7.1-1.3 0-3.6 0-4.3-.1-1.4.1-4.6 0-4.4.1-.4 0-2.4-.1-3.6-.1 2.3.2-4.7 0-4.1.2-1.7-.1-6.1-.1-9.1-.1h.8c-1.7 0-2.2.1-3.2.1-.2-.1-2.8-.1-4.2-.2-2.1.1 1.2.1.6.2.1-.1-3.6-.1-2.9-.2-1.6.1-1.3 0-2.2.1-.3-.1-1.5 0-2.8-.1-2.3.1-.6.1-3.1.1-1.3-.3.9-.2.9-.2zm-59.5-.2h1.2-1.2zm-5 0h2.2c.2 0 0-.1-.5-.1.3 0-.9 0-1.7.1zm10.6-.6h-1.2 1.5-.3zM55.6 1c2.5 0 1.2-.1 1.7-.2 3 0 1.4.1 2.4.1 1.9 0 3.4-.1 4.8-.1h.1c2-.1 6 0 8.3-.1h.3c-.4-.1-.4-.1-.4-.2 1.1 0 2.1-.1 2.5 0h-1.1 1.2c1.1.1-1.6 0-1.6.1 2.3 0 5.1-.1 6.8-.1.4.1-4.2 0-1.8.1H76c2.1.2-1.7 0 .3.2H84c.8-.1-.3-.1.5-.1 5.2-.1 4.1.2 7.9.1 1-.1 1.4-.2 4.1-.1l-.9.1c3.5 0 2-.2 5.7-.1h-2.2c2.4.1 1.7-.1 3.5-.1l.4.1c3.8 0 7.9-.1 12-.1-.2 0-.9.1 0 .1 5.2 0 11.2 0 16.2.1l1.9-.1c.4 0 .8 0 .3.1 2 0 .1-.1 1-.1 1.1 0 1.5 0 .8.1 3.5-.1 9.9-.2 13.6-.1h-.7c2.9 0 3.2-.2 5.9-.1h-.5c6.2 0 13 0 17.8.1.9-.1 6.1.1 6.5-.1 3.5.1 2.5.1 7.5.2 1.3 0 2-.1 3.6-.1v.1l2.2-.1 1.2.1h1.5c-.6 0-1.3 0-1.2-.1 2.4 0 5.9.1 5.9.1l5.7-.1c-.1 0-1.1 0-1.8.1 3-.1.6.1 3.3 0-.4 0 .2-.1.3-.1 1.4.1 4.5.1 6.9 0l-.4.1h13.7c-1.7 0-1.3-.1.1-.2l.6.1c.9-.1-1.5 0 .4-.1 1.8 0 1.2.1.2.1h2.2c.1 0-.4 0-.5.1.9-.1 3.7.1 5 0h10.9c.1-.1 1.6-.1 2.7-.1 2.8 0 6 .1 9.4.1 2.4 0 .7-.1 1.8-.1.2.1 3.6.1 1.8.1 4.1 0 5.2 0 10.4-.1-.6 0-1.2 0-.9-.1.9 0 2.1 0 2 .1h-.2c5.8-.1 13.4.2 18.1.1h-.3l4.8-.1c2.2 0-1.3.1.3.1 5.2-.1 8.2 0 12.5-.1 3.3.2 11.7 0 16.2.1h-.3 2.2c-.1 0-1.3 0-.5-.1 9.8-.1 20.2.1 30.2.1 3.7 0 2.1-.3 6.7-.1l-1.3.1c7.4-.1 15.1 0 22.4-.1h-1.2c1.5.1 5.7 0 5.7-.1 1.1 0 .3 0 1 .1 1.5 0 3.9-.1 4.7 0h-.7c1 0 4.7 0 3.7-.1h7.4c1.4-.1 4.7 0 5.1-.1-.2.1 4.8.1 6.5 0-.6 0 1.5 0 .8.1 2 0 3.8 0 3.4-.1 3.6.2 7.3-.1 9.3.1 5.8-.1 11.2-.1 16.5-.2-.2.1-5.8 0-5.6.2 5-.1 7.8-.2 12.8-.1 1.3 0-.7.1-1.2.1 5-.1 9.6 0 14-.1h-.9 1.9-.9c-1.4-.1 3.5-.2 3.6-.2-1.5.2 4.4 0 2 .3.6 0 1.3 0 1.2-.1.9 0 1.1 0 .3.1 3.1 0 2-.1 4.8-.1 0 0-.6 0-.9.1 1.4-.1 2.9-.1 5.3-.1h-.6c4.1 0 7-.2 11.5-.1-1.3.1 1.5 0 1.8.2h2.4l-1-.1c2.1 0 4-.1 5.8 0H500h4-2.2c2.1-.1-.2-.1 2.6-.1-.6 0 2.1 0 3.2.1 1 0 2.1-.1 3.7 0 .4 0-.3.1-.1.1 1-.1 5 0 6.3-.1-.4 0-.5.1-.3.1l.9-.1c1 0 1.1 0 1 .1 3 0-.9-.1 2.6-.1h-.7 10c1 .1-2.8 0-1.7.1 4.7 0 9.7-.1 14.2-.1h-.8c.6-.2 3.4.1 5.6 0-.6 0-.7.1-.6.1 3.1 0 6.3 0 11-.1h-.6 6.8c.6 0 1.7 0 1-.1 6.1.2 11.6-.1 17 .1h-1 4.6c-.4-.1-.6 0-1.6-.1.6 0 1.9-.1 3-.1-2.1 0 0 .1.9.1-.1 0 .2 0 .1-.1 2.4.1.4-.1 3.7-.1h-.2c1.2 0 2.4-.1 3.7-.1.5.1-1.3 0-1.4.1 1.9 0 3.7-.2 5.3-.1h-2.7c1.8.1 2 .1 3.4.1h-.1 3.1-.8c2.3-.2 4.7 0 7.9-.2-3 .1-.5.1-.7.2.8 0 2 0 1.7.1 1.5-.1 2.5.1 4.5 0 .1 0 1.6 0 1.2.1 1.9 0-.5 0-.3-.1 3-.1 7 .1 11.2 0 3.7-.1 4.4-.2 7.8-.2 1.2 0-.9.1-.9.1h5c-.4 0 0 0 .5.1 1.4 0 .9-.1 2.8-.1-.3 0-.7.1-1.4.1 1.7 0 3.3-.1 5-.1.5 0-1 .1-1.6.1 1.9 0 5 0 5.6-.1H650c.7 0 .4.1-.2.1-1.6.1-2.4 0-2.5-.1h1.2c-1.3-.2-4.9 0-7.3 0l1-.1-2.5.1c-.5 0-.9-.1.3-.1-1.8-.1-1.6 0-3.1 0h.1-1.7c.3 0-.3-.1.8-.1-3.1-.1-5 .1-6.1 0h.3c-4.3 0-.4.1-3.6.2l-2.2-.2-.4.1h-1.2c-1.6.1.3 0-.7.1-2.1-.1-5.9 0-6.3-.1-.8.1 2 0-.2.1-.6-.2-2.6 0-4.6 0 .6-.1 2.4 0 .5-.1-1.2.1-3.8 0-5.4 0-.1.1-3.6 0-6.3.1.2 0-5.2-.1-7.7-.1h.1c-.5.1-3.1.1-5.1.1.1-.1.4-.1 1.5-.1h-1.8c-.4 0-1 .1-2.2.1l.5-.1c-2.4 0-4.8.1-7.9 0-.2.1 2.5.2-.8.3-.1 0-.2-.1.6-.1h-1.6l1.3-.1c-1.4 0-.7.1-1.9 0 0-.1-.8 0-.7-.1h1.4c-1.3 0-2.8 0-3.3-.1.1 0 0 .1-.9.1-2.4 0-.8-.1-2.2-.1-.6 0-2.1 0-2.2.1-.7 0-.8 0-1.1-.1-1.2 0-5.8 0-4.4.1h.3-.2c-4.1.1-8.5 0-12.5 0-2.4 0-5.4 0-7.1.1-.7 0-1.7-.1-1.4-.1-1.8 0-2.1.1-4.7 0h1.9c-2.4 0-2.9-.1-5.5 0 .9-.1-1.8-.1-2.9-.1l1.7.1h-3.5l.6-.1c-4.9-.1-8.8.2-12.6 0-1.3.1 2.7 0 1.5.1-2.3 0-4.6-.2-5.3-.2-3.1-.1-2.9.1-6.1.1.4 0 .8.1-1.6.2-2.3 0-2.8-.1-1.4-.2h.8c.7 0 1.7 0 .8-.1h-.3c-1.1 0-4.2 0-3.5-.1-1.7 0-.7.1.5.1h-7.5c.5 0 .9.1.4.1-4.4 0-1.9.1-4.9.1-1.7-.1.6-.1-2.4-.1-1.8 0-.4-.1.3-.1-2.7.1-5.1 0-6.6-.1h1.4-2.3l.8.1h-1.5c-.9 0 .7.1-1.1.2-1.1 0-3.4 0-3.8-.1 3.5 0-.4-.1 2.6-.1H474h.3c-3.4-.1-1.5.1-5 .1.4 0-.8-.1-1.4-.1 1.4 0 .7.1-.6.1h-3.6 1.3c-.5 0-1.6 0-3.1.1h.9c-1.7.1-3.9-.1-6.3 0-1.1 0-.1-.1-1.1-.1-2.7.1-2.9-.1-5.8 0 .8.1 1 .1-1 .1h4.7l-3 .1h3.8c-1.4.1-1.3 0-.6.1-1.9-.1-3.8.1-6.1 0l.1-.2c-3.4-.1-6 .1-10.3 0h1.4c-.6.1-2.7 0-4.1 0 .1-.1-.8-.1-1.4-.1.1 0-3.2 0-3.6.1l-2-.1c-3.5 0-4 .2-7.4.1 1-.1-.5-.1 1.7-.2h-2.2c-.7 0-3.1.1-4.2 0-.5 0-.6.1-1.9.1-.1 0 0 0 0 0s-2 0-.9.1c-3.5-.2-9.7 0-12.8-.1h-7.7.4c-3.1-.1-1.9.2-5.4.1-1.8-.1 1.9 0 .7-.1-.5-.2-4.2 0-6.6-.1h.6c-1.8-.1-4.4.1-7.4 0 0 0 .1 0 0 0-2 .1-5.9.1-8.7.2.9-.1 1.3 0 .8-.1-1.3 0 .4.1-2.2.1-.8 0-2.7-.1-2.9-.2h2.4c-1.2-.1-3.1 0-4.4 0h.2c-3.7 0-3.7.1-7.7.1h.4c-2.2.1-1.8-.1-4 0l-.7-.1c-1.4 0-5 .1-7.5.1 1.4-.1 4.4-.1 6.3-.2-1.4 0-4.8 0-5.5.1h1.9c-1.7.1-4 .1-6.8.1.5-.2-7.3-.1-9.4-.2-5 .1-9.9 0-15.7 0 2.1.2-1.7 0-1.3.2h-2l-4.1-.1c-1 0 1.3 0 1.2-.1-3 0-1.2-.1-3.2-.1.4.1-1 .1-2.7.1l2.4.1c-4.1.1-3.6-.2-7.7-.1l1.3-.1c-2.1 0-7.9 0-10 .1-.4 0-.9-.1.1-.1-5.1 0-11.4.2-15.4.1h.4c-1 0-1.7.1-2.9 0h-.1c-.5 0-2.5.1-3.8 0h1.1c-5-.1-7.7.1-11.8.2 0-.1-3.9-.2-5.9-.2h.1c-5.8 0-9.9.1-15.2.2-3.3-.1-11.3-.1-16.7-.1.8 0-.1.1-1.1.1-1.3 0-3.5.1-3.3 0h.4c-1-.1-3.5-.1-5.6-.1l-.3.2c-5.2-.1-13.8.2-16.7 0-1.3 0-2.9 0-4.1.1l.1-.1h-9.7l.9-.1c-2.5 0-3.1.2-5.4.2l-.7-.1c-4.3 0-8.6-.1-12.9 0 .1 0 .2-.1.9-.1-2 0-7.8-.1-7.1.1-.1-.1-4.4 0-6.8 0l.4-.1c-2 .1-2 .1-4.8.2-.6 0-.6-.1.3 0-2.2 0-1.7.1-4.3 0h1c-2.2 0-2 0-3.3.1-1.4 0-4.2 0-4.5-.1-.3 0-1.5.1-2.8.1-.2 0 .3 0 .5-.1-3.7-.1-5.5.1-8.1 0h-.4 5.1c0-.1-2.4-.1-.5-.2-1.9.1-5.2.2-7.5.1h-.3.2-3.4c-.3-.1-2.7 0-3.9 0 .1.1-1.5.1 0 .1h1.5-.1 3c-.9 0-1.9.1-3.2 0-.6.1-1.3.1-1.7.1-1.6-.1-4.8-.2-5.2-.2-3.6 0-8.6 0-10.8.2-1 0-1.2 0-1.6-.1h1.6c-2.1 0-6.1 0-6.6.1-2.6 0 1.5-.1-2.1-.1h.5c-7-.2-11.4.3-19.2.1h.9C55.1.2 45.7.4 36.9.2c-2.5 0-2.8 0-4.3.1l-.5-.1-2.6.1C25.8.4 23.1.1 18.4.2l.6.2h-5c-.2 0-.5.1-1.2 0H8.6C5.4.4 9.1.2 4.4.2 2.7.2-.5.3.1.4c.7 0 1.8 0 1.8.1H.3C.1.6-1.1.8 2.8.8L5.5.7l.9.1H4.1c1.3.1 2.1 0 3 0 .2 0 .6.1 1.1.1l2.7-.1c.3.1-1.2.1.6.1 1.2-.1-1.2-.1.9-.2 1.3.1.9.1 2.4.1.2 0-.1.1-.7.1 1.4 0 3.6 0 4.3-.1 1.4.1 4.6 0 4.4.1.4 0 2.4-.1 3.6-.1-2.3.2 4.7 0 4.1.2 1.7-.1 6.1-.1 9.1-.1h-.8C40.5.9 41 1 42 1c.2-.1 2.8-.1 4.2-.2 2.1.1-1.2.1-.6.2-.1-.1 3.6-.1 2.9-.2 1.6.1 1.4 0 2.2.1.3-.1 1.5 0 2.8-.1 2.3.1.6.1 3.1.1 1.2 0-1 .1-1 .1zm59.5-.2h-1.2 1.2zm5 0h-2.2c-.2 0 0-.1.5-.1-.3 0 .9 0 1.7.1zM109.5.2h1.2-1.5.3z"></path>
</svg>