<svg class="svg--linelefttoright" xmlns="http://www.w3.org/2000/svg" viewBox="0 0 500 1">
  <path opacity="0.75" d="M42.6981 0c1.953 0 .9167.105903 1.3312.164728 2.3357.035295 1.0842-.0823497 1.8733-.1411749 1.4588.0235301 2.5748.1293979 3.659.1293979.0797-.02353.2949-.023504.0478-.047034 1.5385.082355 4.5756-.000029 6.3692.117622.1355 0 .1993-.023553.2312-.023553-.287.058825-.3348.105891-.279.152951.8769 0 1.6262.07059 1.961 0-.5341 0-.5819-.023504-.837-.047034l.9167.035257C58.8006.235275 56.72.305906 56.72.235315c1.7936.035295 3.8821.117671 5.2532.094141.287-.094121-3.2125-.035339-1.3791-.117694l-2.1204.03533c1.6262-.1529458-1.2914-.000006.1993-.1529515 2.798-.0235301 3.1248.0470115 5.9149.0234815.6297.058825-.2073.082421.4225.141246 3.9618.094121 3.1168-.2471087 6.0344-.117693.7573.07059 1.0443.188223 3.1248.129398l-.7094-.117622c2.7023 0 1.5464.16472 4.3763.082364-.5022-.04706-2.1284-.035341-1.7139-.047106 1.8335-.0941202 1.2994.058883 2.7104.058883l.2949-.105917c2.8777.011765 6.0584.082387 9.247.105917-.1754-.035295-.7254-.058846.0239-.094141 4.0256.04706 8.5933-.011762 12.4752-.0705871l1.483.0823641c.343 0 .638-.035281.263-.058811 1.515-.0352952.08.058773.805.094069.861 0 1.14-.047058.59-.070588 2.67.07059 7.605.152943 10.419.070588l-.55-.023482c2.192-.035295 2.471.176424 4.504.094069h-.391c4.751-.04706 10.004.02357 13.631-.105845.694.129415 4.704-.058854 5.014.117622 2.719-.082356 1.937-.117608 5.764-.176433 1.02 0 1.522.105868 2.782.129398l.032-.09414 1.714.09414.908-.105917 1.188.023553c-.47 0-1.004.035293-.933.070588 1.85.035295 4.512-.058857 4.552-.105917l4.377.082364c-.096-.035296-.829-.047058-1.411-.070588 2.335.094121.422-.0941201 2.566 0-.287.02353.152.058823.208.070588 1.068-.058826 3.491-.058788 5.293-.035258l-.343-.058811c3.244-.0117651 6.84.035246 10.483.023481-1.308.02353-1.005.141187.063.152952l.431-.094141c.693.058825-1.116.035327.303.105917 1.363 0 .916-.10588.135-.141175l1.658.035258c.096-.02353-.287-.046997-.39-.082292.677.058825 2.853-.0941204 3.834 0l.096-.0235531c3.643 0 5.293.0352581 8.258.0352581.056.082355 1.22.05888 2.105.12947 2.176-.02353 4.599-.094129 7.222-.082364 1.849.035295.542.070561 1.371.117622.135-.070591 2.758-.070562 1.395-.117622 3.149.011765 4.026.011762 8.011.070587-.43.035295-.916.047058-.669.070588.725.011765 1.642-.035293 1.538-.070588h-.191c4.472.105886 10.331-.2235327 13.894-.070587h-.199l3.699.070587c1.698-.011765-1.021-.058857.239-.105917 3.986.129416 6.297-.023533 9.582.070588 2.543-.2235362 9.015.011782 12.443-.1293986l-.199.0470346c.885.04706 1.068-.0352696 1.722-.0470346-.096.0352956-.965.0470576-.415.0705876C257.267.2 265.255.0588367 272.955.0117766c2.814-.01176508 1.595.2705904 5.15.1411744L277.1.0588109c5.684.1176501 11.615.0000201 17.179.0941401-.335-.02353-.343-.047034-.885-.047034 1.172-.0705903 4.345-.000014 4.361.058811.869 0 .199-.047069.733-.0823641 1.18-.0470602 2.957.0941431 3.587.0235531.104 0-.335-.0235531-.55-.0235531.765.0352951 3.579-.0000029 2.846.0705871 2.089-.035295 3.994.035284 5.66-.011776 1.084.09412 3.571-.0470518 3.922.082364-.152-.1294158 3.659-.10586 4.982-.047035-.438-.035295 1.148-.04708.63-.0941401 1.506 0 2.885.0235501 2.622.0941401 2.774-.1647102 5.58.129419 7.143-.070587 4.472.07059 8.617.117656 12.643.152951-.144-.129415-4.448-.011771-4.273-.152951 3.818.058825 6.018.164705 9.805.141175.98-.02353-.558-.058834-.885-.082364 3.818.058825 7.374-.01178 10.77.058811-.008-.011765-.375-.023565-.726-.03533.67 0 1.555-.023496 1.483.03533h-.654c-1.068.07059 2.655.164702 2.774.211762-1.132-.176476 3.356-.047026 1.547-.258797.438 0 .996.035304.893.082364.653-.011765.86-.035303.199-.082364 2.399.035296 1.546.094069 3.715.094069 0-.02353-.447-.035292-.67-.070587 1.1.058825 2.2.11767 4.042.09414-.112-.011765.103-.035258-.447-.035258 3.149 0 5.373.152894 8.825.094069-1.021-.129415 1.171-.047066 1.355-.152951l1.857.035329-.749.058811c1.626 0 3.069.08233 4.464.047034l-1.212-.047034 3.053.023553-1.73.047034c1.651.058826-.175.141213 1.993.105917-.438 0 1.627.000003 2.479-.070587.806.035295 1.635.070564 2.838.047034.311-.035295-.255-.117644-.047-.141174.797.09412 3.81.023501 4.822.117621-.335-.02353-.35-.082303-.239-.094068l.67.070587c.757-.02353.861-.035304.741-.082364 2.272-.011765-.717.141189 1.969.082364-.215 0-.112-.011788-.55-.023553 2.702-.035295 5.221.04706 7.708 0 .734-.105885-2.168-.023501-1.331-.117622 3.579.02353 7.422.129376 10.889.105845h-.645c.478.164711 2.582-.07059 4.336 0-.43 0-.566-.082352-.446-.070587 2.375-.02353 4.854.035304 8.45.082364l-.447-.03533c1.403-.035295 3.683-.023492 5.198-.035257.446.035295 1.315.035315.789.09414 4.663-.223536 8.888.117653 13.025-.070587-.494 0-1.18-.03533-.781-.03533l3.523.03533c-.279.07059-.462.035243-1.203.094068.446.035295 1.443.070588 2.311.070588-1.586-.04706.016-.10588.702-.141175-.112.02353.12.047057.064.070587 1.841-.11765.311.141167 2.822.058811l-.136-.035258c.941.02353 1.81.070576 2.822.058811.423-.082355-1.004-.035255-1.068-.105845 1.427 0 2.814.152943 4.097.070587-.606-.02353-1.475-.023576-2.08-.047106 1.403-.09412 1.562-.070599 2.606-.082364h-.103l2.407-.035257-.614.023553c1.786.200005 3.627.035252 6.027.176432-2.336-.129415-.383-.070607-.566-.164728.614-.02353 1.546-.046997 1.283-.082292 1.132.070591 1.897-.058851 3.492.047035.071-.02353 1.211.000003.956-.070588 1.475.02353-.35.047069-.223.082364 2.272.094121 5.341-.117639 8.617.011777 2.822.058825 3.34.152925 5.963.199985.885-.04706-.725-.105917-.725-.105917 1.426-.04706 2.495-.035295 3.842 0-.271-.02353.008-.047068.414-.082364 1.077 0 .718.105943 2.145.058883-.247-.035295-.558-.082398-1.076-.117693 1.267.02353 2.526.082386 3.842.105917.351-.047061-.797-.070622-1.26-.105917 1.475.02353 3.827.047043 4.289.129398l-.949.023553c.542 0 .279-.070599-.119-.082364-1.268-.058825-1.826.023516-1.897.058811l.932.023553c-.964.16471-3.762-.023542-5.644-.011777l.79.117694-1.937-.105917c-.415.035295-.694.105928.239.117693-1.355.058826-1.196-.047109-2.36.023482-.127 0-.072.011788.048.023553l-1.323-.03533c.255.02353-.224.082353.59.070588-2.368.07059-3.819-.094121-4.712 0h.2c-3.285-.035296-.319-.082324-2.782-.18821l-1.658.223539-.327-.09414c-.343 0-1.013.000046-.885.047106-1.26-.058825.215-.035315-.518-.094141-1.634.082356-4.504-.035335-4.871.105846-.59-.070591 1.563-.04702-.183-.105846-.494.152946-2.017-.023556-3.508.047035.455.082355 1.874.035326.375.105917-.901-.129416-2.902.02353-4.161 0-.056-.105886-2.734-.047069-4.847-.082364.136.035295-3.97.058845-5.939.09414l.056.023481c-.382-.105885-2.407-.082315-3.882-.105845.056.058825.327.094092 1.124.117622h-1.387c-.327-.035295-.757-.058822-1.658-.070587l.351.082364c-1.85 0-3.715-.094155-6.091-.03533-.135-.07059 1.89-.211736-.621-.258797-.096.035296-.184.105869.47.129399-.215 0-.765-.035307-1.204-.011777l1.005.070588c-1.084.035295-.566-.0588-1.427-.047035.016.058825-.638.047069-.518.082364.223 0 .757-.02353 1.084 0-.973 0-2.153.04708-2.543.094141.088-.035296 0-.082364-.718-.082364-1.849 0-.629.070538-1.706.094068-.446-.035295-1.626.000063-1.658-.082292-.542 0-.637.035281-.845.058811-.956-.035295-4.464-.000032-3.387-.105917h.247-.16c-3.133-.082355-6.505.047072-9.613.011777v.023553c-1.85-.035295-4.122-.023539-5.445-.082364-.55 0-1.291.058834-1.06.082364-1.419-.02353-1.579-.058826-3.627 0 1.427.04706-.494.047022 1.459.035257-1.842.023531-2.256.070591-4.233 0 .669.070591-1.387.094118-2.264.070588l1.291-.058811h-2.718l.47.09414c-3.77.117651-6.8-.200005-9.669 0-.997-.07059 2.048-.047043 1.156-.129398-1.73.011765-3.54.152951-4.082.152951-2.375.058826-2.216-.141212-4.703-.105916.319-.035296.622-.129433-1.236-.164728-1.737.011765-2.136.141209-1.036.176504.415 0 .614-.000023.598-.023553.558.011765 1.299.023527.606.070587l-.223-.035257c-.861.035295-3.245.035243-2.687.094068-1.307-.035295-.558-.058822.407-.070587-2.224.04706-3.476.000034-5.764.035329.367-.02353.702-.05881.335-.05881-3.356.04706-1.483-.070599-3.754-.082364-1.292.058825.462.129424-1.826.082364-1.403.035295-.295.094091.263.117621-2.088-.07059-3.898.047046-5.094.058811l1.1.023553c-.661-.011765-1.195-.011776-1.745-.011776l.629-.070588c-.645.011765-1.195.011739-1.179.047035-.662-.047061.51-.117608-.813-.176433-.861.035295-2.623-.035309-2.918.058811 2.71-.035295-.303.094152 1.993.105917h-1.626c-.096 0 .087.023481.271.023481-2.591.082351-1.188-.105845-3.874-.105845.342.04706-.622.094129-1.061.082364 1.084 0 .518-.08241-.478-.12947-1.722.035295-1.873-.035246-2.774-.023481l1.028-.023553c-.35-.047061-1.211-.047046-2.407-.058811-.104.035295 1.092.023504.662.047034-1.332-.09412-3.014.094155-4.871.03533-.861.035295-.08.094091-.837.117621-2.081-.07059-2.256.070602-4.44.011777.63-.07059.741-.058868-.797-.117694l3.595.047106-2.312-.105917c1.084 0 2.288.047095 2.942.03533-1.101-.058825-.989-.035315-.471-.09414-1.482.105885-2.949-.058826-4.663 0l.056.176504c-2.583.082355-4.592-.094166-7.94-.047106l1.076-.035258c-.446-.07059-2.072-.000034-3.157-.03533.104.058826-.573.082399-1.044.117694.056-.04706-2.455-.000043-2.758-.117694l-1.499.082364c-2.71.035295-3.093-.164705-5.691-.141174.781.058825-.399.105891 1.347.152951-.869 0-1.65-.000023-1.666-.023553-.51.035295-2.407-.082307-3.205-.023481-.366-.023531-.486-.082364-1.458-.082364-.104.011765 0 .023481 0 .023481 0-.02353-1.531-.035255-.678-.105845-2.678.176475-7.477-.011771-9.813.141175-1.897-.023531-4.185-.03527-5.899-.047035.112.011765 0 .023481.335.023481-2.376.058826-1.459-.16467-4.161-.105845-1.379.094121 1.435.047069.574.082364-.375.188241-3.261-.023593-5.078.082292h.438c-1.387.070591-3.388-.058799-5.659-.047034 0 0 .111.011788.015.023553-1.554-.09412-4.495-.129421-6.68-.152951.678.07059.997.035266.574.117621-.98 0 .287-.117644-1.666-.141174-.637.035295-2.048.082361-2.232.152951h1.842c-.941.105885-2.384.000023-3.356.023553l.127.047034c-2.83-.011765-2.862-.129386-5.899-.117621l.311-.03533c-1.658-.11765-1.395.058874-3.045-.023481l-.502.117622c-1.092-.023531-3.834-.117634-5.803-.129399 1.116.082356 3.411.129373 4.83.176433-1.084 0-3.69.000003-4.256-.070588.438 0 .988.035319 1.418.023554-1.331-.094121-3.084-.141164-5.245-.129399.383.223536-5.636.05884-7.206.235315-3.826-.082355-7.589.035247-12.053.023482 1.578-.176476-1.299.000031-1.028-.188209h-1.531l-3.149.105845c-.749.04706.989.035304.893.082364-2.272.011765-.956.070573-2.455.129398.311-.058825-.789-.094117-2.089-.070587l1.826-.082293c-3.181-.09412-2.75.15293-5.947.058811l1.013.058811c-1.643-.035295-6.067.000006-7.677-.141175-.287.023531-.678.070599.048.082364-3.93.02353-8.745-.152942-11.798-.070587l.295.047034c-.733-.011765-1.275-.082318-2.192-.035258.048.023531.295.047035-.048.047035-.391-.011765-1.945-.08233-2.918-.047035l.829.047035c-3.834.058825-5.883-.117656-9.095-.152951.008.129415-3.005.176444-4.512.188209l.056.023553c-4.464.011765-7.581-.105891-11.71-.152952-2.567.141181-8.689.05882-12.811.141175.63-.02353-.103-.105857-.837-.117622-.964.023531-2.67-.094097-2.519.023553h.343c-.725.117651-2.718.082293-4.272.082293l-.256-.152952c-4.057.223536-10.634-.082312-12.85.117694-.98-.035295-2.192-.035304-3.164-.082364l.055.082364c-2.718.02353-4.073.035306-7.421.011776l.686.058811c-1.89 0-2.392-.235327-4.138-.247092l-.526.12947c-3.3 0-6.64.105886-9.908 0 .055.023531.151.058811.685.058811-1.554 0-6.01.082347-5.444-.082364-.04.105886-3.404-.000034-5.19-.035329l.279.082364c-1.506-.105886-1.554-.129433-3.651-.164728-.494 0-.438.070636.223.047106-1.658.04706-1.291-.08239-3.308-.03533l.75.047107c-1.706 0-1.571-.023539-2.511-.082364-1.077-.035295-3.2369.023478-3.492.094068-.2312-.04706-1.1639-.105822-2.1683-.082292-.1355.02353.2312.047046.4145.058811-2.8538.058825-4.2488-.094132-6.2098-.011776-.0398.02353-.1674.035269-.3348.047034 2.2719 0 4.0974-.000012 3.922-.011777 0 .070591-1.8334.094161-.3746.188281-1.4748-.058825-3.9858-.17647-5.7714-.141175-.0877 0-.1674.011788-.2392.023553h.1834c-.4145.011766-.7812 0-1.132 0-.566.011766-.9326.023482-1.4827.023482-.2152.058825-2.1045.035329-3.0132.035329.0717-.082355-1.124-.070584 0-.141174-.1435 0 .1754-.000061.7812.011704h.3906-.0638 2.2719c-.7254-.04706-1.4747-.082318-2.4871-.035257-.4703-.058826-.9885-.105869-1.2754-.129399-1.2516.117651-3.659.17643-3.9938.24702-2.79-.04706-6.5685-.035263-8.3222-.188209-.7972-.02353-.9088.047057-1.2117.070588.4544.011765 1.0044.011727 1.2515.035257-1.5863-.035295-4.6952-.011748-5.0778-.129398-2.0009.04706 1.124.094129-1.6262.082364l.3746.03533C57.8201.941232 54.4401.482338 48.4535.705874c.4145-.011765.6218-.023493.7095-.035258-6.8316.09412-14.0777-.094135-20.8136.058811-1.9132.035295-2.1205-.035315-3.2923-.09414l-.4145.09414-2.0008-.105845c-2.8379-.07059-4.9105.223533-8.4977.070587l.4624-.058882c-1.2914 0-4.0814-.035261-3.8662.035329-.1355 0-.4225-.05886-.9247-.035329l-.03986.047106L6.61105.600029c-2.45523.035295.38263.188209-3.19658.188209C2.08323.764708-.379971.658877.122234.623582c.534092 0 1.371106-.023527 1.410956-.070588L.313552.529441C.0903496.388261-.842318.247072 2.147.152951l2.08057.082364.6696-.070587H3.14344C4.13988.0941376 4.76963.164679 5.47112.188209c.1674-.035295.46235-.058822.8689-.070587l2.04867.12947c.24712-.058825-.91672-.10588.45438-.141175.95658.058825-.91672.117596.66961.164656.99642-.058825.70942-.117636 1.87332-.058811.1674-.035295-.0797-.058822-.55-.070587 1.0442.04706 2.7581.02355 3.2922.09414C15.1645.15296 17.6436.258814 17.54.129398c.3268.035295 1.8334.105917 2.79.105917-1.7457-.1529453 3.5792-.000028 3.1169-.1765041C24.7383.199991 28.1182.11763 30.406.199986c-.1275 0-.3826-.035247-.5819-.023482 1.2914 0 1.666-.058833 2.4951-.0823635.1674.1176505 2.1762.1411715 3.2524.2117625 1.5783-.105886-.9566-.129442-.4624-.2470921-.0797.0941201 2.7422.0941491 2.2081.1765041 1.2117-.07059 1.0443-.035278 1.6661-.129398.2152.14118 1.1239.023501 2.1284.117622 1.7457-.070591.4464-.1294359 2.3675-.094141.9167-.0470599-.7971-.0940684-.7971-.0940684L42.6981 0Zm45.6768.247092h-.9407.9407Zm3.8422 0h-1.666c-.1355.02353.008.058811.3986.058811-.2073-.02353.6935-.035281 1.2674-.058811Zm-8.1229.576475c.6058 0 .8131-.000023.8928-.023553H83.855c.0558.011765.1276.035341.2392.047106V.823567Z"></path>
</svg>