<svg xmlns="http://www.w3.org/2000/svg" xml:space="preserve" viewBox="0 0 200 64" preserveAspectRatio="none">
	<path d="M64.8 59c2.1-.9 1.5 1.3 1.2.2-.5 1.2-.5.5-1.2-.2zm-2.1.4c-.4-1.4-1.3.8.1.5-.3-.3-1.1-.6-.1-.5zm-.4-1c0 .6 1.1-.3.5.7.8 0 1-1.3-.5-.7zm-2.2 1.1c.4-.4 1.4 1.4.4-.2 2 .3-.1-1.1-.4.2zm1 .6c-1.8.9-1.7.4.4.9-.5-.8.8-2.4-.4-.9zm-23.6-1.3c-.2.3-.3.4-.4.6 2.6-1-1.9-1.2.4-.6zM62 61.5c1.1-1.3-.3-1.7 0 0 .5 2 1.7.5 0 0zm3.5.7zm-5.4-.4c-.2.3 1.3.3 1.1 0h-1.1zm5 .8.4-.4c.7-.7-.8-.7-.4.4zm.4-.4c.9 1.3.9-1 .8-1.9-.5.2.1 2-.8 1.9zm31.9-4.3c-.3.2-.1 1.4.4 1 0-1.6-.2.5-.4-1zm-54.9 5.9c.2-.3.4-.5.6-.9-.9-.5-.5.4-.6.9zm2.8-2.5c.4-.5.7-.8 1.3-.6-.1-1.3-1.7-.8-1.3.6zm-4.8-3.1c0 .8.1 1.7.2.2 1.6.5.7-.3-.2-.2zm4.3 4.5c0-.4-.1-.7-.1-1.1-2 4 2.1-1.1.1 1.1zM56 59.1c-.3-.6-.5.1-.8.5 1.1.4 1.8-1.7.8-.5zm-12.3 4.1.8-1.6c-.5 0-1.3 1.1-.8 1.6zm.8-2.7c.6 1.8.7-.8-.2-.9-1 1.9 0 .3-1.1.2.2.7.1 2.5 1.3.7zm6.3-.4c.1.4.1.8.2 1.1.3-.6.8-1.1-.2-1.1zm-2.9-.5c-.5 1-1-.6-1.6 2.2 2.5-3.3.4.7 1.3.8.5-2.1 1.9-2.4.3-3zm2.4.1c-.1-.6.7-.6.4-1.4-.3.4-.8 1.1-.4 1.4zm3.2-1.6c.8 1 1.3 2.8 1.4.6-.3 1.8-.6-1.4-1.4-.6zm-4.8 4.6c.2-.4.4-.7.6-1.1-.5.2-.7.5-.6 1.1zm1-3.4c-.7.7.2 1.7 1 2-.2-2.5-.6 0-1-2zm49 .6zm-22.4 1.7c-.5 0-.8.1-1.3.1.5.5.8.5 1.3-.1zm-.8-2.5c-.1.3-.2.4-.2.6-2-2.7-.4 3.8-.5-.2.7 1.1 1.1 1.8 2.6 1.1-.8-1.2-2.2.5-1.9-1.5zm-4.2.5c.1 1.2.1.4.9 0 0 1.8.1-.5 0-1.3l.4.4c-.1-2-.5.7-1.3.9zm3.2 1.5c-.2.3-.3.5-.5.8.5 1.4.5.1.5-.8zm-1.9.5c-.2 1.1.8 1.7 1.2.7-1.1.1-.5-.8-1.2-.7zm.6-1h1c-.3-.7-.5-.7-1 0zm21.4-.5v1.1c.6-.8 1.4-1.5 0-1.1zm-.5 1.2c0 1.1 1 1.5.8 0-.3.8-.3.7-.8 0zm-57.6-3.5c-.1.2-.3.5-.5.8 1.1 1.6.9.5.5-.8zm44.2 3.6c-.3.1-.7.1-1 .2.2.5.5.5 1-.2zm.3 1.3c-.3.1-.6.2-.9.4-.1.9.8 1.2.9-.4zm9.6-.3c-.7 0 .1 1.1-.4 1.2.3.5 1-1.5.4-1.2zM67 62.2c-.5 2.1.7.5.4-.5 0 .9-.3.5-.4.5zm14 1.4c.3.6 1-.3 1-.9-.8.3-.2.9-1 .9zm-4.6-3.9c-.1-.7-.3-1.1-.7-.6 0 1 .5.4.7.6zm21.1.3c-.2.6-.8 1.1.2 1-1.2 2.1 1 .4.9-1.1-.4.4-1.2 1.4-1.1.1zm.1-.5c1.5.8.7-2.4 1.9.5v-1.9c-1.2 1.5.9-3-1.1.5-.1-2.8-.2.2-.8.9zM66.8 62c-.6-1.3-.4.9.1.2.6-.6-.4-4.3.7-2.4-.9-2.7-1 .9-.8 2.2zm2-1.5c.8 2.5.1-3.1 0 0zm26.9-1.9c-.3.1-.3.4-.1.6-2 .4 1.9 1.1.1-.6zm-25.9 3.8c-1.1-1.2-2.2 1.2 0 0zm-.2-4.1c.3.1 0 2.4.8 2-.4-1.7 1.6-2.7-.8-2zm-.8 2.2c-1.2-.8-1.5.5 0 0zm-.4-2.4c.1.4-.2.6-.4 1.2.9.3 1.5-2 .4-1.2zm28.1 1.8c-2.2 1.2 0 2.6-.6 1.1 2 .1.2-.1.6-1.1zM6.3 42.6zm0 0c0 1.3 1.2 1.4 1.9.7-.6-.5-1.3.5-1.9-.7zm4.3-3.3-.8.8c.8.1 1-.1.8-.8zm-.6 3.8c1-1 .2-2.4-.6-.8 1.7.7-1.2 1 .3-.9-2.5.6.7 2.3-.1 3 .8-.2 2.3-1.8.4-1.3zm-1.2 1.6c.2.3.4.7.7 1.2-.2-1.9-.2-2.3-.7-1.2zM19.2 56c-.2-1.8-1.1 0-.1 1.5.4-.8 1-3.7.1-1.5zM7.1 37.4c-.8-.2-1.2.4-.9 1.1 0-1.4.9-.7.9-1.1zM1.2 30c-.1.3-.1.6-.2.9.5.4 1.1-1.1.2-.9zm5.4 6.7c1.7 1.4 1.5-2.1.3-1.5 0 .6.2 1.3-.3 1.5zm3 8.8c.2.5.5-.6.8-.8-.6-.2-.8.1-.8.8zm7.8 4.2c1.6.2.3-3 0 0zm-4.1-2.1c.3-.2.6-.4 1-.7-.7-.7-.7.1-1 .7zm-3-1.5c.2.2.4-.1.7-.8-.1-.3-.5.6-.7.8zm.4.7c-.1.7.7.1 1.1.1.1-.6-.7-.1-1.1-.1zm-3-1.9c.3.9.3.2.5-.3-1.4-.5-.5 2-.5.3zM11 8.3c3.8 1.9.2-2.4-.9.4.3 1 1.8 1.1.9-.4zM.5 30c0-.3-.1-.5-.1-.9-1.2 3.4 1.6-.9.1.9zM71.4 1c-.1-.5 0-1-.7-1 .8.6-.3 1.3.7 1zm39.4 0h-.5c-.3.9 2.2-.2.5 0zm86.9 19.7c.4-.1 0-1.8-.6-1.6 0 .5 0 1.5.6 1.6zm-194.5 6c.4.3.7.6 1 .9.1-.6-.5-1.6-1-.9zm-.4-14.4c.3.2.6.4 1 .6-.1-1.1-.3-1.2-1-.6zm3.4-4.5H4.7c0 1.5 1.2 1.3 1.5 0zM5.1 9.5c1.3.2 1.3.3 1-.9 0 1.3-.7.3-1 .9zm-.3 14.9c-.3-1-.8.6-.9 1 .1.2 1.7-.5 1.3-1.3-.1 1.1-1.3.6-.4.3zm18.6 38.5c-.7-1.2-2 .3 0 0zm1.8-1.8c.8-1 .6-2.9.2-1.1-.6-.3-.2.6-.2 1.1zm4.9.5c-.4-1 .3-.6.3-1-.5-.3-1.2.8-.3 1zm0-2.9c-.4 2 1.3-.4 0 0zm-1.6.9c1.3-2.2-1.9 1.2 1.8.5-.5-1-.9-.1-1.8-.5zm-.7.3c0-.9-1 .5-1.4.6-.4-1.2-.3-.1-.1.7.4-1 1.3-1.5.6-.3 2 .7 1.3-4 .9-1zm2.2 2.2c.4-.1.3-.2.2-.5-.9.8-.2 2-.2.5zm.6 1.5c.5-.5 1.1-.9.9-1.8-.3.6-.7 1.2-.9 1.8zm5.2-.4c-.1.1.4 1.4.1.3.7.7.9-2.7-.1-.3zM31 59.5c-.1 1 0 1.8.2.5.1 1.3.9.8.9-.3-.6-.1-.4 1.3-1.1-.2zm.2-1.1c-.4.8-.4.9.1 1.2 0-.4.3-1-.1-1.2zm-.2 3.8c.2-.3.4-.6.5-.9 0-.4-1.4.8-.5.9zm1.3-1.7c-1.2 1.1.2 1.6 0 0zm-8.9 2.4c.3.5.6.9 1.2.5-1.4 0 .1-1.3-1.2-.5zm-.6-1.7c.3-1.7 2.4-3.7-.5-1.9-.6-1.8-.3.3.4.7-2.6.2-.9-.3.1 1.2zm.6 1.7s0-.1 0 0zm-3-1.1c-1.8.3.1.2-.2 1.2 1-.1-.1-.4.2-1.2zm-.6.8c-1-.1-.9 1.3.2.9-.2-.4-1.2-.2-.2-.9zm.1-6.7c-.3.7 1 .2.2 1.4.5.1.8-1.7-.2-1.4zM18.6 58c0 .6.8.1 1.3.1 0-.4-.8 0-1.3-.1zm23.3 4.9c-.1-1.4.9-2.4-.3-1.3.4-1.3.7-1.9.7-.2 1.5-1.9-.4-.9.4-2.2-.8.2-1.1 1.5-1.3 2-.2-3-1.3-1.7-2.2-.6-.8-3.3-1.7-1.6-.4-.4-.3 1-2.2-.6-2.4.2-1.7-2.7-3.8 1.8-3-.6-.7.1-.3 1.2-1 .6 1.2-1.4-1.3.3.1.5-.1 1.5 1.9.7.3.2 1.4-.6 2.1-1.6 1.7.9 1.5-.4-.2-1.2 1.4-1 .1 1.3 1.5-1.5 1.3.9-.6-2.1-1.5 1.6-.3-.2.3 1.5.8-2.1 1.9-.2-2.3 1.6-.8.7-.8 2 1.1-.5.9-4 1.9-2 1.3-2.6.7-.3 1.2 1.2 1.6 1.9 3-4.6.8.2zm-16.7-.1h1.3c.1-.3-1.6-.3-1.3 0zm-3.3-4.4c.5-1.8-.6-1.8 0 0zm2.2 1.8c.9 1.6.5-.2 1.2-.9-2 0-2.1 3-1.2.9zm-2.2-1.8zm2.7 3.7c.2-1.6-.9.3-2.3-.8-1.1-1.9-3 .3-.7 1.1-.1-3 1 .6 3-.3 1.5 0 3 .2 2.8-1-2.2 1.4-1.7-.8-2.8 1zM8.3 10c.3-1.2.8-.1 1.2-.3 1.9-2.8-4.4-2.7-2.3.5.1-2 .4.4 1.1-.2zm154.9 50.7c.6-.7-.8-.3-.6-1.4-.4.9.4 1.7.8 2-.6 2 2.8 1.2-.2-.6zm-.9-1.8c-.1.2-.1.3-.2.4-3.1-1.7 0 2.3.2-.4zm2.1 4c.4 1.3 1.8 1 1.5-.3-.5.4-1 .7-1.5.3zm-1.9-2.4c-2.8-1.3-3.1.7 0 0zm4 3c-.2.2-.6-.4-.5.4 1.6.1.5-2 .5-.4zm-6.2-3.6c-.7-2.1-1.2-.3-1.1.7 1.3.3-.1-1.7 1.1-.7zm15.1-.4c.1 0 .1-.1 0 0 .6-2.1-2.8.9 0 0zm-6.6 2.6c.7.3 1.7-.1 1.6-.8-.7.3-.9-.4-1.6.8zm-18.1-.3c-.6-.4-.6 0-.6.5-1-1.3-.3 1.4.6-.5zm36.6-12.1c.7-.3 1.3-.2.5-.9 1-.9-.5-.1-.5.9zm-2 1.3c3.4.2-1.2.1 1 1.3-.1-.8.1-.8.8-.6-1.9.6 1.5 1 .8-.3-.2.7-.5.6-.8.3 3-1.4-.7-1.2-1.8-.7zm-24.1 10.7H160c.5.5.8.4 1.2 0zm-8.7-.1c-.4.7-.6 1.2-.8 1.7.7.4.7-1 .8-1.7zm.9 2.2c.3-.7.1-1.5 1-1.3-.1-1.6-1.1.1-1 1.3zm-1.2-4.7c.2.2.4.5.6.7-2-3.4-.7 4.9-.6-.7zm-2.4-.1c.3.4.5.7.8 1.1.1-.9.2-1.3-.8-1.1zm1.3 3.3c-.6-.4-.9.9-1 1.2.9-.3.4-1.6 1.3-.9.2-2-.5-3.1-.3-.3zm3-2.2c.5-2.5-1.2-.3 0 0-3.5.6.6 0-.3 1.1.3-.2.5-.9.8-.3.4 1.6.5-1-.5-.8zm3.2-1.4c1.3-1.9-1.4.9-.8 1.8.7-1.2 1 .5.8-1.8zm2.2 3.8c0-.4.1-.8.1-1.3-.6.3-.8 1.1-.1 1.3zm-1.1-1.5c.2-.4.5-.4.8-.5-.4-1.1-1.2 0-.8.5zm-3.3-2c1-2.2-1.4.6.1 1.5.2-.9 1.4-1.8-.1-1.5zm-1.1-.2c.2-1.5-.7-.7-.9.5.4.1.6-.1.9-.5zm3.5 2.8c.7 1.2-1.2.5.5 1.2-.1-.3.4-1.6-.5-1.2zm25.6-7.5c.3-.2.4-.2.6.2 0-1.3-.9-1.2-.6-.2zm-169.9-36c.3-.5-1.1-.2-1.3-.3-.3.5 1.1.3 1.3.3zm181.4 29.7c.7-1-.7-4.5-.5-3.2-.6 6.3 2.9 2.6.5 3.2zm.1-5.1c2.1.3.4-1.8.3-2.9-2.9-1.9.3.8-.3 2.9zM8.2 34.8c-.4.3-.4.5.3.4-.2-.3-.3-.4-.3-.4zm-.4-3.9zm69.5 28.5c.1 0 .1.1.2.1v-.4c-.1.2-.1.2-.2.3zm-.8-.8c-.2 1.1.3 1.6.9.8-.4-.2-.7-.5-.9-.8zM8.2 18.4c.3-.5.5-.8 0 0zm185.1 24.1c.4 3-.3 3.6-1.5 5.9-.1-.6-.2-.4-.8-.1 1.1 1.1-1.1-1-1.7.4.9-2.3-2.5.4-3.1-.6-.4.5-3.1-.6-1.7 1.2-1.6.6 1.7 1.1-.2 1.9-.8 1-1.3-.3-2 1.4 2.1-.3-.7 1.2.1 2.4-.3-.5-.7.6-.9-.6-.7-.2.3 3.4-1.7 1.7-.9 2.4-1.6 1.3-4.3 1.7-1.3 0-3.1-2.1-2.9.5.6-2.2 2 .1.6.1-.5.1-.8.1-.9.1.3 0 1.3 0 1 .8 1.6-1.2-.7.7.1 1.2.5-1.3 2.5.1 2-1 .4-.5.4 0 .3.5.8-.4.4-2.7 1.4-1.3-.7-1.3 2.4.9-.4.3 0 .5-.5 2.3-1.3 1.6-1.1-.6-.9 1.1-2.4.3-1.1 1.3.5.2.5.7-.4.1-.7 1.1-1.3.6-.1 1.2-1.6-1.3-2 1.1.7-3.4-.8-1.6-2.3-2.8-.7 3.1 1.3.1.7 1.7-1.7 1.4-2.6-1.5-3.2-.4-.3-1.6.6-2.9-1.8-2.5 1.3.4 1.3 1.9.1 2 1.3-1.9-2.3-.9 0-2.6-2.3-.3.7 0-.1-1.3-.1 1.1-2.3-2.3-3.3 1.5-.6-1 .5-1.2.2-2.4-1.6 2.8-6.8-1.4-7.1.9-.2-1.3-4.2.9-3.4-1.1-2.1.9-3.7.9-5.9-.3.4 2.6-5.3 0-6.8 1.5.1-2-.4.4-1.3-.6.2-.7.8.3 1-.8-2.6 1.6-4.3 2.5-3.5.3-.7 1.3-1.3.8-1.3-.1-1.4 2.9-5.6-1.4-6.9 1.8-.2-1 .6-2.8-.2-1.3-1.6 1.7-2.4-.7-3.6 1.2-.2-2.3-1.2 1.5-.2-.3 0 1.6 0 1.6.5 1.2-.4 1.7-1.3-1.3-1.6-1.5-3.3.4-2.5-2.3-3 .7.2-1.8-1.5-1.9-.8-.8-1.1-.9-.4-1.2-1.7 1-1-1.9-.6-1.6-1.7-.1-.5-1.8-1.6.4-1-1.2-1.3 1-.2-.3-1.4-.2.9.8-.4.5-.6-.1 0 1.8-1.1-1.1-1 .8-.7-2.4-.5 1.6-.9-.8.1-.1-1.8 1.8-2-.2-.5 1.2-1.7.9-2.6.6-.4 1.3 1 .5 1.1 1-2.2 1.1-.9-2.2-2-.5-.5-1.8-.6.8-1.2-.6-.8 1 .2 1.6-.5 2.3-1.3 0-.8.2-.5-2.4-1-.4-2.7.9-3.6-.5.2 2.4-2.4.4 0 3.3-2.3-.6-1-4.7-2.6-1.2.6.5-1.7 5.9-2 4 1.1.3-.5-.4-.4-1.1-1 3-1 .9-1.6 0 2.5-.1-1.8-.6-.2-.8-1-1.1-.7.9-.8 1.5-.3-1.5-.1-.4-1.2-1.4-.9.5-.7 1.1.4.5-.3 1-1.5.7-1.4 1.5-.4-1-2.2.2-1.3-1.1.5-.1 1.8-1.3 0-.1-.4-1.4-1.5 1.9-1.5.5-1.1.7-3.1.7-3.7-.9.2-.2.5-.4.8-.5-.2.1-.6.2-1.1.4-.4-.7.8-1.7-.7-1.8-.6 1.5 0 2-1.7 1.6 1.1.7 1.8 1.8-.1 1.8.5-1.8-.5-.9-.6-3 .7.5 1.4.8 1.5 1.3 1.2-1.4-2.3-.6-.4-2.1-.5-.3-.9-.5-.1-.6 1.5-1.4-3.4-2.1-3 .6-.8-.8 1.2-2.1-.5-2.4.9.6-2 2-1.6.3-.4 1-.5-.3-.8-.1.3.3-.9 1.2-.7.3-1 1.5-1.4-1.6-2.4 1.3.7-2.2-.9-1.4-1.7-1.4-.5.5-3.7.7-2.7-.5-.5.2-.9 1-1.1.2-.3 1.6-2.1-1.3-1.4 1.5-.9-2.4-1.9-.6-3.4-2 .4.6 0 2.2-.3.7-.8.4-1.6.2-3.4.3-.4 1.2-1.8.1-3.2-.4-1 1.2-1.6.4-.3-.3-1.4-.1-2.2 2.9-2 .9-1.2.3-1.4 1.1-1.4.1-1.3 1.8.6-1.9-1 .2 0-.7-.4-.3-.8-.3 0-.6.7.2.4-.9-3.2 2.5-1.8-.1-5.4.9-1.1-1.8-1.7 2.2-1.2-1.1-1.6 3.7-8.8-1.2-8.2 1.9-.5-2.1-.9 1.3.8.3-.6 1.3.6.7-1.2 1.4.5-2.3-1.4-1-1-3.5-.4.6-.4 1.9-1.3.9 0 2.8.2-.9-1-.3.6 2.5-1.7-.6-2.9 0 .8 1.3-.8-.7-.6.6-1.1 0-.5-1.1-1 .2-1.4-3.3-.9.7-2.6-2 .6 1.4-2.8-1.2-.6-.7-1.3-2 .3-1.9-1.2-2.6.7.8-.9 1.5-.9.5.2 1.9.4.8-.7.9.7-1.5-.9-2.5 1-1.3-.4-.5-.2-1.9.8-2.2-1.9.2-1-.3-.6-1.9.8-2.3-.5.3-2.1-.8 1.2-2.9.8-4.2-.1-3.5-1.6 1 .8 5.4-.3 3.5-3.5-.6.7-2.7-1.7-2.5.8.9-.4 1.7-.1 0-.9 0-.2.1-.1.6-.5.3-.9-.2-1.2.6-.9.4.3-1.2-.7-1.3.5 2.1-.5 0-.5 1.6 2.5.3-.8 1.2 0 0-.8-.7-.6-1.1.2-1.1-1.7-.9-.4-.1 0-1.1-.4 0-2.4.1-.8-.5-1.2-.8 0-1-.1-1.8 2.7-2.5-1.6.5-1-3-4.5.3-.8-1-2.7-3.1 1.5.4.2-.9 0-1.1.5-.4 1.6-.9 2.2-1-2.1-.4-.7-.2-.8-1.3 0 1.1-.6-.7-1 0-.1.8-.4.5-.6.3-1-2.3.8 1.3.3-1 .6 1.2 1.1-1.5.9 0 1.4-1.2-1.6-.8-1.4-1.2 0 2.5-1.5-1.2-4.5.9C1.8 28.4 4 31 4.8 29c-.2-.8-.1-1.5.2-.4.6-2.3.4 1.4 1 1.1.6-1.5.4-2.4 0-3.1.2 1.6-.9.4-1.7-.1 1.9.4.7-1.1 1.9-.7 1.5 1.9 1.9-.5-.4-.2 1.8-1.2-.2.4-.5-1.3.9.8.6-.3.8-.9.9 2.3 1.8-1.5 1.7.7.2-.3.4-1.4.6-2.2v1.4c.5-.4 1.1-2.7 1.5-1.5.2-.7 1.1-.7.6-2.1.3 1.7-4.5 1.6-3.1-1-.4 1.2.3.4.7-.2 1.4.6 2 .9 2.9.2.8.2 0 1.8.5.4 7.7 0-.3-1.5 5.6-1.2.2-1.2.8-.2 1.2-.6-.2.7-.6 1.7-.4.4-.9 1.6 1 1.1 1.8 1.6 2.2-2.4-1 .2-1.5-1.5 1.1.5 5.3-.4 2.9-1 1.6-2.2.8 2.1 2.2-1.1-2.6-1.4-2.4.5-3.9 1.3.4-3-1.6.7-.9-2-1 1.9-1-1.1-1.8.5-.3-.1-.3-.1-.4-.2 0 .1.1.3-.1.9-.2-1.5-2.8-1.5-.7 0h-1.1c1.2 1.1-.4.8-.3-.7-.3 1-.9-.9-1.9.5-1.3-1.6-.4 2.1-1.2.1-1 .3.3-2.5-2-.3-.3 1-.2-.3.2-.6-.9-.2-.8.7-1.2-1-1.1 2.3-.8.3-1.7 1.1.4-2.8-.2-.8-.3 1.1-.1-1.9.1-.7-.8-.9.4-.1-.1-1.3-.5-2.2.8-2.8-1.2-.9.6-2.5-.1.4 1 .3 1-.6.4 2.9 2.8-1.9 2.2.7.8-.4-.3-1.5 1-.7-.9.9 1.7 0 .9 2.4.4 0 .1-2 .2-2.5 1.1 1.8.1.6 1-.2-.5 1.2.4 1.3.7.7.3-.4 1-.2 1.8-.6-.4-.6-2.9-2.3-.6-2-1.7 1.3 2.8-.5 1.2-.5-2.4-.5.3-2.4-1-2.8 1.9-2.8 1.9.7 3.9-1.8.1 2.3.3-.2.5 1.2.4-.2.9-1.1 1 .6.7-2.6 1.5-.3 1.8-.9.8-.8 2-.8 2.6-.1.8-1.6 5.6 1.9 6.6-1.1-.1 2.3 2.8 1.1 3.7.3-.2.7.8.7.7-.3.3 3 2.1-1.4 3 1.5 1.3-2 .4-1 1.7 0 .3-.9 1-.8 2.1-.8-.9-1.2 0-.1.6 0 .2-.3 8.5 1.6 10.1-.6 1.4 2.6 3.3-1.2 3.9.1-.2-.5 3.2.7 1.9-1.4 1.2-.2 3.8.5.9-.8 2.3 0 4.8 1.7 2.9-.5 2.1.5 1.8 3.5 2 .5.5-.2.7 1.7.8 0 .3 1 4.5.8 4.2.2 2.1-.1 3 1.9 4-.7.1 2.5-.1-.6.6 0-.2.8-.4 1.4.8 1-.1-.3-1.5 0-.3-.5 1.5 1.2 2.1.3 3.6 0 1 2.1 5.9-.6 13.4.8.7.4.4-.9 1.1-.8-1.1 1.2 2.5-.1.8 1 .7.2 1.7-.5 1.8-1.1-.6.8 5.3 1.5 4.4 0 .5 0 .7 1.9 1.2.2 1.6 1.3 2.2-.9 2.4 1.3 1-2 .5-1.1 1.6-.1 2.1-2.4 4.3 1 5.9-1.8-.5 3 2.5-.2 2.2 1.2 1.2-1.9 1.2.9 3.1-.7-1.2 2 1.4-.4 1.5.5.3-1 .8 1.7.8-.6-.1 1.6 1.8-.2 1.8 1 1.9-.6 3.8-.9 5.5-.1-.3-1.8 3 0 3.4-.4-.6-1.1 1-1 .5.4 1.3-1.7.5.2 2.8-.3-.2-1.3 1.4.9 2.6-.7 1.6 2.2 3.1.3 5.1.5-.1-1.5 1.9 2.1 3.1-.3.2 2.5 2.1-1.4 3.2.5.3.9.3 0 .7-.3 1.8 1.4.5-.7 2.1-.1.3 1.7 1-1 2 .6 0-2 .7 2.2.8-.9 1.1 2.8 3.7-1 3.8.8 1.4-.3 4.2.2 7-.1-1.7-2.1 2.7 1.7 1.1 1.1.9.9 2.8.8 3.8 1.4-1.2-.4 2.4-.6 3.5.1 0-1.2 2.1-1 4.3.4.6-1.9 7.4-.6 11.1-.4 0 4 8.7 7.4 5.4 7.2 0 .5 1.6.3.9-.4.4-.6.8.7 1.3-.8-.3 1.9.6.4 1.5 2.2.6-2.4-.6 2.5.2.6.2 1.1 1.2.4 1.5 1.7.8.8.3 4-.5 1.8-.4 1.3.5 3.5-1.8 3.2 1 .5.8 3-.3 2.8-.1-3.5-.1 1.7-.9-.8-.6 3.2-1.1 4.1-.5 4.5 1.5 3.9-.8-4.4 1.9-2.7 0 .6.3 1.8-.6 1.7-.7.6 1.5.2.4 1.4.3.4.3 1.5.6 1.4-.1-.8-.5-1.7.2-2.4.5.3-.2 4.9.9 2.4 3.3 4 2.4 2.1-.8 4.7 1.3.5.9 2.1 0 2.9-.6-.9-1.3-3-2.1-1 1.9-1.1-.9 1.5-.2 2.5 1.7-4.7 3.1 2.3.6-.1-1.1 1.8.6 5.7-.1 6zM6 11.7c.3-.1.5-.1.7-.1-.2 0-.4 0-.7.1zm-.3.3c-.2 0-.3-.2-.3-.5-.1.4.1.5.3.5zm.1-.8c-.1-.2 0 .6-.3.4.3.2.3-.3.3-.4zm.5 1c-.5.4-.7 1-.4 1-.2-.2-.1-.5.4-1zm.5-.3c-.2.5-.4.9-.5.9.1.1.3-.3.5-.9zm1.7.3c.1-.2.4-.1.6-.2-.2 0-.5 0-.6.2zm-.1.8c.1-.2 0-.6 0-.9 0 .3.1.7 0 .9zm.8.8c-.4 0-1-.2-1-.2.4.2.7.3 1 .2zm-.1-.7c-.1.7-.1.7 0 0 1 .1 1 .1 0 0zm1-.6c-.1.1-1 .3-1.8.6.9-.4 1.7-.5 1.8-.6zm5.1-2.5c-.1.1-.3.3-.1.3 0-.1.3-.3.1-.3zm.4.3s-.2-.3-.3-.3l.3.3zm.5-.2c-.2-.9-1.8-.7-1.7-.2.3-.5 1.4-.5 1.7.2zm4.7 4.8c-.2 1-.7 1-.9.6.1.4.7.4.9-.6zM6.7 29.4c-.1 0-.1.1-.1.2 0-.1 0-.2.1-.2zm.6-.5c-.1.1-.1-.4-.3-.6.2.6.2.7.3.6zm1.2.5c-.3.3-.7.7-.7 1.3.1-.3.4-.8.7-1.3zM8.2 28c-.4.2-.4 1.4-.1 1.7-.2-.7-.3-1.4.1-1.7zm.4.8c0-.1-.2-.5-.3-.4.2.2.2.3.3.4zm.1-.9c-.2-.3-.9-.4-1-.3.2-.1.6-.1 1 .3zm.4-3.7c-.1 0-.2-.1-.3-.2.1.2.2.2.3.2zm.4-.9c-.4.5-1.3.8-1.2 1.4 0-.7.7-.9 1.2-1.4zm1.1-1.2c-.6 0-.7.2-.6.4-.1-.2-.1-.3.6-.4zm.9-2.1h.2-.2zm.2 1.6c-.2-.2-.4-.3-.5-.4.2.1.3.2.5.4zm1.8 20.9c-.2 1-1.6 1.4-.7.4-1.7.4.4 1 .7 1.6.1-.4-.3-1.4.4-.5.4-1.3-1 .2-.4-1.5zm2.8-24.3c-.6.1-.8.4-.3.6-.1-.2.1-.5.3-.6zm.2 25.6c-.1-.1-.1-.1 0 0zm1-25.5c-.4.3-.7.4-.9.5.2 0 .5-.2.9-.5zm0 0c0-.1-.2-.2-.5-.2.1 0 .3.2.5.2zm6.1-.6c-.1 0-.1-.1-.2-.1.1 0 .2.1.2.1zm56.1 41.8c0-.2-.6-.5-1-.8.1 1.1.7.5 1 .8zm.4-.6c-.8.1-1-.2-1-.6 0 .5.2.7 1 .6zm12.7 1.3c-.1 0-.3.1-.4.3.1-.1.2-.2.4-.3zm.4-.4c-.5.2-1.1.3-1.8.2.5.6 1 .3 1.5.1l.3-.3zm73.8.9c-.2-.2-.5-.2-.8 0 .2-.1.5-.1.8 0zm.2.2c-.2 0-.3.1 0 .4.3.1.1-.3 0-.4zm4.9.5c-.2-.1-.3-.1-.4.1.1 0 .2 0 .4-.1zm4.7-2.5zm-3.9.5c0-.1-.1-.2-.1-.3 0 .2 0 .2.1.3zm-.6 1.7c.2.1.3.2.3-.1-.1 0-.2.1-.3.1zm19.5-39.5c.1 0 .2.7-.1 1.4.3-.6.2-1.4.1-1.4zm.4 24c-.1-.1-.2-.2-.3-.2.1 0 .2.1.3.2zm.6-2.4c.2.8-.5 1.4-.6 2.4.2-1 .9-1.6.6-2.4zM4.7 13.2c-.4-.9-.8-1.5 0 0zm12.6 31.4c-.8.1-.6 2.1.1 1.7.4-.7-.1-3.6-.1-1.7zm178.4-3.8c.2-1.5.3 0 .4.6 1.3-1.7-2.2-3.7-.4-.6zm-20.1 17.1s0-.1 0 0c-2.6.5 1.6.9 0 0zM197.8 32c-.4-.3-.5.8-.1 1.1.6-.5.3-2.8.1-1.1zm.3 3.9c.7.1.8-.2.6-1.2-.6.4-.7.8-.6 1.2zm-1.8-2.4c.3-.9.4-1.2-.1-1.8-.4.7-.4 1 .1 1.8zm3.4-1.8c-1.2.1-.3.9.3 1.4-.1-.6-.2-1-.3-1.4zm-4.1-4.7c1.4-2.6 2 1.5 2.8-1.1 1.8 1.3-2.5-3.3-2.8 1.1zm1.6 6.8c-.7.3-.7.8-.1 1.2 0-.4.1-.6.1-1.2zm-.2 3.8c-.1.3.2.6.3.8.7.1.3-1-.3-.8zM10.2 17.8H8.9c0 .5 1.4.8 1.3 0zm-1.7 3.9c.1.2.2.4.3.5 0-1.2-.1-1-.3-.5zm0-.1v.3c0-.1.1-.2 0-.3zm3.4 20.3c-.1.1-.9-1.4-.5 0-1-.1-.1.7.5 0zM32 59.6c.1 0 .1 0 0 0zM65.6.7c.1.1.2.1.3.2-.1-.1-.2-.2-.3-.2zm17.3.1c-.3-.2-.7.1 0 0zm30.6 59c1.3-1.5-.2-1.1 0 0zm0 0c0 .1 0 .1.1.2.7.6.9-.5-.1-.2zm-14.8 2.7c0 .3.7 1.4 1.1.1-.6.3-.6 0-1.1-.1zm15.7-2.4h1c-.5-.8-.6-1-1 0zm-1.6-.1c.1-1.3-2.4.9-1.5 1.6-.1-1.3 1.8-1.6.5-.9 1.9 1.4 1.5-2.9 1-.7zm-1.3 2.6h-1.4c.4.5 1.1.5 1.4 0zm5.2-1.3c0 1.3.8.1.5-.8-.1.3-.3.5-.5.8zm-5.7-2c-.9 0-.7 1.2-1.3 1.6.9.2.9-1 1.3-1.6zm36.4-.9c0 .7 1.1-.3.4.8 1.1-.3.6-1.2-.4-.8zm-31.3 1.2c-.4 1.4.7 2 1 .1-.7 0-.3 1.4-1-.1zm-1.5 3.2c1.2.1 0-1.8.9-2.3-1.5.1 0 1.3-.9 2.3zm1.8-1.6c-.3.3-1.4.9-.4 1.1-.5-.6.2-.7.4-1.1zm-1.3-2.5c.1.3.1.6.2.9.3-.5.6-1.3-.2-.9zm-3.6 3.1c-3.3-.9-.8 1.2.8-.1-.8.6.5.9.1-.5-.4.2-.8-.4-.9.6zm-5.5-1.5c-.2-.8-1.6.3-2-.6.7 1.5.1 1.3 2 .6zm-3.8-1c.5 1 .4-.3-.2-.7-.1.6-.5 1.8.2.7zm1.7.4s0-.1 0 0zm-3 2.2c-.1.4-.8 1.2 0 1.1.2-.5.8-1.2 0-1.1zm-.8.1c0 .6.7-.4 1-.5-.5-.5-.8 0-1 .5zm2.5-3.1c2.5 0-1.1.8 1.3.7 0-1.3.3.5.8-1-.1.2-2.4-.2-2.1.3zm6.5 3.6h-2c0 .9 1-.4 1.2 1 1.7.1.5.2.8-1zm.1-1.4c1.1 2.1-.9.8-2.4.2.5.3.2.9-.3 1.1-.8-.4-.4 2-.6-.6-2.6-2.1 3.3-1.3 4.5-2.5-1.7 1.1-1.4 2.5-1.2 1.8zm-3 0c-.2-.1-.4-.1-.6 0h.6zm2.1.5c-.4-.2-.6-.8-.4 0h.4zm-3.8.3c0-2.2-3-1.9-5.6-1.7-.6 1.9 2 2.4.5 1.7.3-2.2 4.2-.7 2.5.5l-.3-.3c.1.2.2.3.3.3-1.2.6-.5.2.3 1.2-.6-2.8 2.5-3.9.8-1.4.8-.5 1.6.8.8 1.3.7.1 2.1-.1.4-.4.2-.4.3-.8.3-1.2.1.1.3.2.7.4v.7c1.5-.3-.5-1.1-.7-1.1zm2.5-2.6c2.2 1.4 3.5-2.2 0 0zm8.9 4c.7-.7.7-.7.6-1.7-.2.6-.4 1.1-.6 1.7zm22.6-5.2c.8 1.3 1.3 2.8 1.4.6-.4 1.8-.4-1.2-1.4-.6zm-3.7 1c-1.1.9 1.7 4.3.7 1.6.4-.6.4.1.6.6 1.4-2.2-1.6.1-1.3-2.2zm-5 2.4c-1.3 2.8.2 0-.2 2.4 2-3.7-.3.2.2-2.4zm11.2-2.4c-.3-.8-.5.3-.8.4 1.1.7 1.8-1.7.8-.4zm3.5 1.4c.7.8 1.9 0 2.3-1-.3-.1-1.1 1.4-2.3 1zm-12.1-.3c.6-2-1.1.8-1 1.6.8-2.2 2.1-1 .7.5 1.3 0 2.4-4 .3-2.1zm-2.2 1c2.6-.6.1-2.4 0 0zm5.4-2.9c-.2.4-.4.9-.6 1.3.6-.3.8-.9.6-1.3zm11.6 3.3c0 .4.1.9.4 1.1.9-.3.1-1.2-.4-1.1zm-2.1-2.2h1.4c.1-.6-1.2-.6-1.4 0zm2.1 1.9c0-.3 0-.2 0 0zm.5-1.4c-.2-.3-1-.5 0-.5-.4-1.4-1.3.9 0 .5zm-.5 1.7c.1 0 0-.3 0-.3v.3zM130.1 60c-1.9-.6-.6 1.5-1.8-.2.2 2.5 1.7.8 1.8.2zm-12.6-.1c.9 2.6 1.1 1.6 1.3-.3-1.6 1.4-.3 0-1.3.3zm5.5.3c1.1-2.3-.1-.2 1-.1-1.9.6-3.6-.6-3.5-.9-2.5.8-.3.5-.7 1.7-1.1 1.4 1.8.5.2 0 1.2.5 2.1-.8 2.4.6-.7-1.5-1 1.8-.3-.1.4 1.7 1.3-2.4 1.9.2-2.6.2-.6 1.1-.7 1.6 2.1-1.9-.1-7.7-.3-3zm-2 3.4c1.5-3.2-.8.9 0 0zm-2.6-4.3c-.7-.4-1.1-2.2-1.7-2-1.9 5.2 1-2.2.4 2.4.4.4.4-.6 1.3-.4zm-.9.6s-.1 0 0 0zm4.3-1.5c-.2.5.7 0 .9.9.4-1.1.3-.8-.9-.9zm5.3 3.9c.1.7.6-.5 1-.7-.2-.5-.7.5-1 .7zm.4.4v1.2c.3-.5 1.1-1.2 0-1.2zm.9-.1c.1.2.2.5.2.6 2.2-3-1.4-.5-.2-.6zm-3.1.7c.1.4 1-1 .8-1.3-.3.5-1 .7-.8 1.3zm-.1-2zm.6-2.8c1.4.6.7-.4-.3-.2-.1.9.1 1.4.3.2zm1.3 3.1c-.8-.1.6-2.8.4-.3.5-.8 1.1-2.1 0-1.1 1.1-2.3-1 0-.7.9-.6-1.2.9-1.7.4-2.6-.4 2.5-3.7-.4-1.8 2.8 1.4-2.6.7-.1 1.2 1.4.7-.5.7-2.6.5-1.1z"></path>
</svg>