<?xml version="1.0" standalone="no"?>
<!DOCTYPE svg PUBLIC "-//W3C//DTD SVG 20010904//EN"
 "http://www.w3.org/TR/2001/REC-SVG-20010904/DTD/svg10.dtd">
<svg version="1.0" xmlns="http://www.w3.org/2000/svg"
 width="681.000000pt" height="726.000000pt" viewBox="0 0 681.000000 726.000000"
 preserveAspectRatio="xMidYMid meet">

<g transform="translate(0.000000,726.000000) scale(0.100000,-0.100000)"
fill="#7f0000" stroke="none">
<path d="M3866 6238 c78 -175 33 -321 -124 -402 -19 -10 -93 -38 -165 -63
-356 -121 -536 -273 -624 -524 -27 -80 -33 -203 -13 -280 32 -119 140 -252
259 -319 173 -96 241 -163 256 -249 14 -85 -43 -179 -138 -225 -183 -90 -482
8 -574 188 -50 98 -39 204 36 353 74 149 97 271 69 365 -24 81 -119 158 -223
182 -28 7 -27 4 27 -51 64 -65 88 -113 88 -173 0 -60 -29 -105 -124 -197 -68
-66 -92 -98 -125 -165 -63 -128 -84 -219 -84 -373 0 -101 5 -147 21 -206 67
-245 223 -409 477 -498 124 -44 257 -64 378 -57 l99 5 -86 -54 c-319 -200
-544 -406 -688 -630 -61 -94 -90 -153 -127 -259 -31 -88 -31 -88 -9 -82 118
34 147 38 223 33 44 -3 91 -9 105 -12 24 -6 26 -2 50 77 13 46 47 128 75 183
129 258 335 472 676 703 74 50 159 113 189 140 l55 49 -36 40 c-260 288 -232
654 64 827 26 15 47 31 47 36 0 17 -139 136 -230 196 -185 122 -265 233 -264
366 0 56 6 78 38 144 48 97 171 223 298 307 97 63 145 119 180 205 19 48 23
76 23 172 0 104 -3 120 -26 170 -15 30 -43 73 -63 95 l-36 40 26 -57z"/>
<path d="M4656 5068 c-100 -101 -138 -179 -144 -297 -4 -78 0 -99 36 -222 56
-190 76 -316 69 -447 -6 -137 -25 -190 -91 -258 -93 -94 -237 -124 -342 -71
-59 30 -127 101 -167 175 l-28 51 59 -30 c76 -39 163 -49 226 -25 107 41 198
216 183 349 -37 310 -493 394 -653 121 -93 -159 -104 -344 -29 -501 77 -163
233 -269 468 -317 98 -20 274 -21 352 -1 188 48 333 182 386 358 17 55 20 87
17 170 -5 126 -21 164 -122 296 -217 285 -267 494 -160 679 14 23 22 42 18 42
-3 0 -39 -33 -78 -72z"/>
<path d="M1930 3728 c-97 -51 -192 -145 -237 -236 -37 -74 -38 -78 -38 -186 1
-100 4 -120 33 -195 17 -46 69 -149 116 -230 111 -194 144 -260 162 -332 27
-106 1 -183 -90 -267 -135 -123 -330 -124 -455 -3 -69 67 -93 120 -99 213 -5
86 11 152 54 220 14 22 24 41 22 43 -8 8 -143 -114 -189 -170 -27 -33 -64 -89
-82 -125 -29 -58 -32 -73 -32 -155 0 -75 4 -98 25 -140 33 -68 99 -129 168
-156 95 -38 293 -31 412 15 11 5 28 -22 68 -107 74 -159 141 -258 246 -363
106 -106 191 -154 321 -180 102 -21 279 -15 345 11 157 63 318 254 364 431 23
87 21 217 -4 297 -24 78 -102 201 -156 245 -149 123 -354 111 -494 -29 -100
-100 -140 -237 -106 -368 34 -133 124 -208 264 -220 l77 -7 -40 -14 c-27 -10
-79 -15 -161 -15 -119 0 -121 0 -196 38 -119 58 -214 175 -253 311 -37 128 -3
199 189 396 176 181 201 222 201 335 0 140 -56 226 -262 403 -170 146 -215
203 -229 289 -10 66 28 159 102 251 15 17 24 32 22 32 -3 0 -33 -15 -68 -32z"/>
<path d="M3929 3140 c-101 -10 -168 -26 -259 -63 -270 -110 -470 -330 -556
-612 -26 -84 -28 -102 -28 -265 0 -162 2 -182 27 -263 66 -215 198 -395 377
-518 l65 -44 115 0 c107 0 118 2 161 27 96 57 148 144 149 247 0 113 -36 163
-199 280 -111 79 -164 134 -195 200 -17 38 -21 65 -21 156 0 103 2 114 32 178
82 172 256 275 452 265 115 -5 218 -53 307 -142 141 -142 161 -319 55 -484
-64 -98 -144 -150 -244 -160 l-59 -5 40 52 c61 81 76 153 46 216 -45 95 -200
75 -234 -30 -26 -78 3 -128 175 -305 73 -74 143 -155 158 -180 48 -83 69 -167
71 -272 0 -54 2 -98 4 -98 2 0 36 16 75 36 100 50 180 109 261 193 38 40 69
70 71 69 1 -2 9 -24 19 -51 39 -105 150 -218 266 -271 100 -46 175 -60 310
-60 199 0 341 50 462 162 69 65 107 137 118 229 26 206 -70 391 -264 508 -199
120 -197 117 -74 189 112 65 170 114 205 174 23 39 28 58 28 117 0 61 -5 79
-34 133 -43 79 -150 180 -258 244 -115 68 -125 69 -66 4 57 -61 93 -151 93
-227 0 -102 -48 -225 -126 -325 -80 -103 -103 -165 -85 -232 6 -22 44 -89 85
-150 134 -200 160 -362 74 -466 -44 -54 -103 -80 -225 -100 -41 -7 -43 8 -3
24 79 33 120 96 120 185 0 31 -6 70 -14 89 -17 41 -71 103 -105 120 -65 33
-155 26 -219 -17 -34 -23 -82 -106 -82 -141 0 -38 -13 -46 -38 -25 l-24 19 22
64 c12 36 44 102 72 148 123 200 155 286 145 387 -7 63 -54 165 -93 201 l-27
25 18 -34 c36 -71 5 -211 -70 -317 l-33 -46 -7 78 c-28 315 -175 567 -429 735
-177 117 -389 169 -607 149z m253 -164 c166 -32 285 -94 385 -200 71 -74 129
-182 154 -286 28 -112 14 -352 -25 -427 -9 -17 -11 0 -13 85 -4 194 -66 373
-172 494 -127 145 -378 234 -585 208 -160 -20 -318 -94 -487 -228 -43 -34 -79
-59 -79 -56 0 22 103 154 173 221 96 92 224 163 337 187 86 19 220 19 312 2z"/>
<path d="M3930 2636 c-76 -21 -123 -48 -181 -106 -76 -76 -111 -151 -117 -250
-8 -144 40 -226 179 -306 110 -64 182 -132 219 -208 63 -128 48 -244 -46 -345
-97 -105 -204 -145 -389 -146 -106 0 -130 3 -208 29 -105 34 -190 87 -272 167
l-61 59 -50 -62 c-41 -53 -127 -124 -210 -175 -18 -10 -15 -15 31 -63 125
-131 311 -239 490 -286 85 -23 122 -27 245 -27 218 -1 373 41 521 139 77 51
113 92 156 179 79 158 67 303 -39 466 -22 35 -98 122 -169 194 -145 148 -175
198 -164 270 20 140 211 224 319 141 20 -15 43 -40 51 -56 21 -41 19 -126 -5
-179 -11 -24 -18 -46 -15 -50 10 -9 75 32 107 68 86 98 109 243 55 353 -74
150 -281 240 -447 194z"/>
</g>
</svg>
